<?xml version="1.0" encoding="UTF-8" standalone="no"?>
<!-- Created with Inkscape (http://www.inkscape.org/) -->

<svg
   xmlns:dc="http://purl.org/dc/elements/1.1/"
   xmlns:cc="http://creativecommons.org/ns#"
   xmlns:rdf="http://www.w3.org/1999/02/22-rdf-syntax-ns#"
   xmlns:svg="http://www.w3.org/2000/svg"
   xmlns="http://www.w3.org/2000/svg"
   xmlns:sodipodi="http://sodipodi.sourceforge.net/DTD/sodipodi-0.dtd"
   xmlns:inkscape="http://www.inkscape.org/namespaces/inkscape"
   width="36px"
   height="48px"
   viewBox="10 0 25 50"
   id="svg5120"
   version="1.1"
   inkscape:version="0.92.2 5c3e80d, 2017-08-06"
   sodipodi:docname="100mLBottle_black.svg">
  <defs
     id="defs5122">
    <inkscape:path-effect
       effect="bend_path"
       id="path-effect6253"
       is_visible="true"
       bendpath="m 1211.3945,390.30752 c 7.7558,0.90515 15.1116,3.72442 27.5938,1.53487"
       prop_scale="1"
       scale_y_rel="false"
       vertical="false"
       bendpath-nodetypes="cc" />
    <inkscape:path-effect
       effect="bend_path"
       id="path-effect6550"
       is_visible="false"
       bendpath="m 98.527973,9.8318304 c 0.34919,0.07529 0.628785,-0.01944 0.871902,-0.203311"
       prop_scale="1"
       scale_y_rel="false"
       vertical="false"
       bendpath-nodetypes="cc" />
    <inkscape:path-effect
       effect="bend_path"
       id="path-effect6414"
       is_visible="true"
       bendpath="m 960.6877,378.54776 c 10.47341,2.02123 25.28264,3.97467 36.24569,1.41345"
       prop_scale="1"
       scale_y_rel="false"
       vertical="false"
       bendpath-nodetypes="cc" />
    <inkscape:path-effect
       effect="bend_path"
       id="path-effect6347"
       is_visible="true"
       bendpath="m 712.24867,409.60321 c 10.49212,2.20752 21.97754,2.97506 29.16569,1.19883"
       prop_scale="1"
       scale_y_rel="false"
       vertical="false"
       bendpath-nodetypes="cc" />
    <inkscape:path-effect
       effect="bend_path"
       id="path-effect6328"
       is_visible="true"
       bendpath="m 705.48828,432.27444 53.12891,0"
       prop_scale="1"
       scale_y_rel="false"
       vertical="false" />
    <inkscape:path-effect
       effect="bend_path"
       id="path-effect6330"
       is_visible="true"
       bendpath="m 717.94554,431.44382 c 1.90765,4.72758 23.76025,5.6579 38.04157,4.78766"
       prop_scale="1"
       scale_y_rel="false"
       vertical="false"
       bendpath-nodetypes="cc" />
  </defs>
  <sodipodi:namedview
     id="base"
     pagecolor="#ffffff"
     bordercolor="#666666"
     borderopacity="1.0"
     inkscape:pageopacity="0.0"
     inkscape:pageshadow="2"
     inkscape:zoom="2.8230522"
     inkscape:cx="23.038943"
     inkscape:cy="10.527267"
     inkscape:current-layer="layer1"
     showgrid="true"
     inkscape:grid-bbox="true"
     inkscape:document-units="px"
     inkscape:window-width="944"
     inkscape:window-height="856"
     inkscape:window-x="110"
     inkscape:window-y="0"
     inkscape:window-maximized="0" />
  <metadata
     id="metadata5125">
    <rdf:RDF>
      <cc:Work
         rdf:about="">
        <dc:format>image/svg+xml</dc:format>
        <dc:type
           rdf:resource="http://purl.org/dc/dcmitype/StillImage" />
        <dc:title />
      </cc:Work>
    </rdf:RDF>
  </metadata>
  <g
     id="layer1"
     inkscape:label="Layer 1"
     inkscape:groupmode="layer">
    <path
       id="path3025-8-3"
       style="fill:none;stroke:#1e1e1e;stroke-width:0.11690545;stroke-linecap:round;stroke-linejoin:round;stroke-miterlimit:4;stroke-opacity:1;stroke-dasharray:none"
       d="m 165.63801,-75.215038 c -6.91809,-0.740376 -12.31695,-0.08347 -14.72943,1.729946"
       inkscape:connector-curvature="0"
       sodipodi:nodetypes="cc" />
    <path
       id="path3027-2-3"
       style="fill:none;stroke:#1e1e1e;stroke-width:0.11690545;stroke-linecap:round;stroke-linejoin:round;stroke-miterlimit:4;stroke-opacity:1;stroke-dasharray:none"
       d="m 172.37403,-73.58738 c -0.76374,-0.542705 -1.59101,-0.828701 -3.00105,-1.032799"
       inkscape:connector-curvature="0"
       sodipodi:nodetypes="cc" />
    <path
       sodipodi:nodetypes="cc"
       inkscape:connector-curvature="0"
       d="m 172.7092,-72.965073 c -0.95818,3.431179 -19.61788,3.88102 -21.85269,0.229621"
       style="fill:none;stroke:#1e1e1e;stroke-width:0.11690545;stroke-linecap:round;stroke-linejoin:round;stroke-miterlimit:4;stroke-opacity:1;stroke-dasharray:none"
       id="path3037-7-5" />
    <path
       style="fill:#e9e9e9;fill-opacity:1;stroke:#161413;stroke-width:0.09736865;stroke-linecap:butt;stroke-linejoin:miter;stroke-miterlimit:4;stroke-opacity:1;stroke-dasharray:none"
       d="m 15.564504,26.54407 c 0.0028,-0.752932 8.076485,-0.649802 9.55489,-0.658624 l -0.05661,5.421501 -9.478437,0.693735"
       id="path5347-2"
       inkscape:connector-curvature="0"
       sodipodi:nodetypes="cccc" />
    <path
       style="fill:#591d23;fill-opacity:0.92000002;stroke:none"
       d="m 19.807384,15.882684 -0.03093,-1.917544 c 2.118473,1.096866 4.05264,0.866717 5.89696,-0.01031 l 0.02062,1.907233 c -1.93358,0.407797 -3.898105,0.382314 -5.886649,0.02062 z"
       id="path4709"
       inkscape:connector-curvature="0"
       sodipodi:nodetypes="ccccc" />
    <path
       style="fill:#5a1e23;fill-opacity:0.92156863;stroke:#1e1e1e;stroke-width:0.22593915;stroke-miterlimit:4;stroke-opacity:1"
       d="m 25.669974,13.932543 c -0.174952,0.298319 -0.939665,0.68665 -2.971,0.672142 -1.318566,0.02917 -2.708572,-0.271768 -2.912686,-0.672142 0,-0.371214 1.317107,-0.672141 2.941843,-0.672141 1.624736,0 2.941843,0.300927 2.941843,0.672141 z"
       id="path12242"
       inkscape:connector-curvature="0"
       sodipodi:nodetypes="cccsc" />
    <path
       sodipodi:type="arc"
       style="fill:#5a1e23;fill-opacity:1;stroke:#1e1e1e;stroke-width:0.53093934;stroke-linecap:round;stroke-linejoin:round;stroke-miterlimit:4;stroke-opacity:1;stroke-dasharray:none"
       id="path12405"
       sodipodi:cx="785.94995"
       sodipodi:cy="352.85913"
       sodipodi:rx="7.34374"
       sodipodi:ry="2.0800188"
       d="m 793.29369,352.85913 a 7.34374,2.0800188 0 1 1 -14.68748,0 7.34374,2.0800188 0 1 1 14.68748,0 z"
       transform="matrix(0.3292564,0,0,0.2020103,-236.02035,-57.34297)" />
    <path
       style="opacity:0.71836733;fill:#5a1f23;fill-opacity:1;stroke:none"
       d="m 15.441844,45.176694 0.02799,-23.631822 c 0.371462,-1.824593 1.064283,-3.479055 3.21393,-4.36226 0.350719,-0.2111 0.733551,0.252188 1.050305,-0.672195 l 0.04901,-2.408694 c 0.950397,0.929083 6.039079,0.758484 5.874695,-0.175049 l 0.154046,2.688777 c 0.02183,0.281577 0.151059,0.455781 0.434123,0.476137 2.450031,0.573183 3.099481,2.584546 3.374978,3.935135 l -0.05602,24.072949 C 28.248934,42.300075 15.74043,42.934003 15.441844,45.176694 z"
       id="path12379"
       inkscape:connector-curvature="0"
       sodipodi:nodetypes="ccccccccccc" />
    <path
       sodipodi:type="arc"
       style="fill:#5a1f23;fill-opacity:0.75;stroke:#1e1e1e;stroke-width:0.37045482;stroke-miterlimit:4;stroke-opacity:1;stroke-dasharray:none"
       id="path4084"
       sodipodi:cx="208.21367"
       sodipodi:cy="430.13397"
       sodipodi:rx="15.854501"
       sodipodi:ry="2.3683071"
       d="m 224.06817,430.13397 a 15.854501,2.3683071 0 1 1 -31.709,0 15.854501,2.3683071 0 1 1 31.709,0 z"
       transform="matrix(0.44463865,0,0,0.84570318,-70.088189,-318.54335)" />
    <path
       style="fill:none;stroke:#1e1e1e;stroke-width:0.1399647;stroke-linecap:round;stroke-linejoin:miter;stroke-miterlimit:4;stroke-opacity:1;stroke-dasharray:none"
       d="m 21.830177,15.007901 c 1.325344,0.137693 2.788293,-0.02813 3.562965,-0.33933"
       id="path12401"
       inkscape:connector-curvature="0"
       sodipodi:nodetypes="cc" />
    <path
       style="fill:none;stroke:#1e1e1e;stroke-width:0.1399647;stroke-linecap:round;stroke-linejoin:miter;stroke-miterlimit:4;stroke-opacity:1;stroke-dasharray:none"
       d="M 21.422983,14.990933 C 20.690519,14.881639 20.62098,14.884643 20.082629,14.634639"
       id="path12403"
       inkscape:connector-curvature="0"
       sodipodi:nodetypes="cc" />
    <path
       style="fill:none;stroke:#1f1f1f;stroke-width:0.22580969;stroke-linecap:butt;stroke-linejoin:miter;stroke-miterlimit:4;stroke-opacity:1;stroke-dasharray:none"
       d="m 25.673416,15.789897 0,-1.835068"
       id="path4703"
       inkscape:connector-curvature="0"
       sodipodi:nodetypes="cc" />
    <path
       style="fill:none;stroke:#1f1f1f;stroke-width:0.22580969;stroke-linecap:butt;stroke-linejoin:miter;stroke-miterlimit:4;stroke-opacity:1;stroke-dasharray:none"
       d="m 19.781607,13.959984 -0.0051,1.881462"
       id="path4705"
       inkscape:connector-curvature="0"
       sodipodi:nodetypes="cc" />
    <path
       transform="matrix(0.90636346,0,0,1,2.2644758,-5.0721388)"
       style="fill:#541e1d;fill-opacity:1;stroke:none"
       d="m 29.533638,24.288961 c -14.126245,5.1e-4 -0.004,0.0019 -14.124783,0 0,-0.55022 3.16194,-0.996262 7.062392,-0.996262 3.900451,0 7.062391,0.446042 7.062391,0.996262 z"
       id="path12647"
       inkscape:connector-curvature="0"
       sodipodi:nodetypes="ccsc" />
    <path
       style="fill:#f8f8f8;fill-opacity:0.39682539;stroke:#1a1a1a;stroke-width:0.20905273;stroke-linecap:butt;stroke-linejoin:miter;stroke-miterlimit:4;stroke-opacity:1;stroke-dasharray:none"
       d="m 21.51891,15.242656 -0.04614,21.470051 c 0.109859,1.893053 0.118317,1.885196 0.399907,2.413339 0.155049,0.250378 0.600286,0.919297 0.580672,1.446414 l 0.03844,1.237222 c 0.182308,0.231562 0.391444,0.216834 0.55293,-0.01526 l 0,-1.240194 c -0.01106,-0.405954 0.458273,-1.183043 0.612117,-1.428186 0.352114,-0.553108 0.374471,-0.55838 0.427163,-2.413348 L 24.04649,15.181419 z"
       id="path5840-1"
       inkscape:connector-curvature="0"
       sodipodi:nodetypes="ccccccccccc" />
    <path
       style="fill:none;stroke:#000000;stroke-width:0.04181054;stroke-linecap:butt;stroke-linejoin:miter;stroke-miterlimit:4;stroke-opacity:1;stroke-dasharray:none"
       d="m 21.872806,15.901975 0,20.810732 c -0.06217,2.234002 0.490096,2.244919 0.748555,3.31864 l 0.03896,1.886673 c 0.107115,0.09987 0.141542,0.11834 0.228413,-0.0019 l -0.0202,-1.873889 c 0.284184,-0.975316 0.83899,-1.295471 0.790241,-3.329657 l 0.0067,-20.796406 z"
       id="path12238"
       inkscape:connector-curvature="0"
       sodipodi:nodetypes="ccccccccc" />
    <path
       style="fill:#2f2f2f;fill-opacity:1;stroke:#000000;stroke-width:0.23893969;stroke-linecap:round;stroke-linejoin:round;stroke-miterlimit:4;stroke-opacity:1;stroke-dasharray:none"
       d="m 19.069243,8.7964212 0.297262,-0.1674257 0.149184,4.9134025 -0.362163,-0.225167 z"
       id="rect5886-8-4-8"
       inkscape:connector-curvature="0"
       sodipodi:nodetypes="ccccc" />
    <path
       style="fill:#2f2f2f;fill-opacity:1;stroke:#000000;stroke-width:0.23893969;stroke-linecap:round;stroke-linejoin:round;stroke-miterlimit:4;stroke-opacity:1;stroke-dasharray:none"
       d="m 19.679629,8.4897614 0.351396,-0.096113 -0.0564,4.9134076 -0.362163,-0.225167 z"
       id="rect5886-8-4-8-5"
       inkscape:connector-curvature="0"
       sodipodi:nodetypes="ccccc" />
    <path
       style="fill:#3e1b04;fill-opacity:0.69230772;stroke:none"
       d="m 15.408855,21.391757 0.04428,23.750323 0.53134,0.645929 1.416906,0.645929 2.081081,0.546555 2.745256,0.248435 3.055203,-0.298121 2.036803,-0.298122 1.461185,-0.695615 0.885566,-0.844678 L 29.53364,44.396777 29.6222,21.342069 29.095789,19.263221 16.218288,19.123479 c -0.503181,0.756093 -0.624974,1.512185 -0.809433,2.268278 z"
       id="path12649"
       inkscape:connector-curvature="0"
       sodipodi:nodetypes="ccccccccccccccc" />
    <path
       style="fill:#541e1d;fill-opacity:1;stroke:none"
       d="m 29.037861,19.193994 c -12.803511,-5.63e-4 -0.0036,-0.0021 -12.802186,0 0,0.607201 2.865866,1.099435 6.401093,1.099435 3.535227,0 6.401093,-0.492234 6.401093,-1.099435 z"
       id="path12647-6"
       inkscape:connector-curvature="0"
       sodipodi:nodetypes="ccsc" />
    <g
       id="g4598"
       transform="matrix(0.46654896,0,0,0.46654896,-241.87543,-14.100278)">
      <g
         id="g4552">
        <g
           id="g4527">
          <g
             id="g4502">
            <path
               style="opacity:0.71836733;fill:#5a1f23;fill-opacity:1;stroke:none"
               d="m 551.75384,127.03954 -0.18307,-50.630299 c 0.79619,-3.91083 2.28118,-7.457 6.88873,-9.35006 0.75173,-0.45247 1.66604,0.32179 2.25122,-1.44078 2.74261,1.023151 10.43285,1.353916 12.93329,0.03763 0.6348,1.361786 0.41753,1.16442 1.02425,1.20805 5.25139,1.22856 6.64342,5.53971 7.23392,8.43456 l -0.38524,51.620009 c 0.31662,2.78842 -8.0879,4.37262 -15.36049,4.30746 -7.1382,-0.0611 -14.35151,-1.60039 -14.40261,-4.18657 z"
               id="path12379-9"
               inkscape:connector-curvature="0"
               sodipodi:nodetypes="cccccccccc" />
            <path
               style="fill:#5a1f23;fill-opacity:1;stroke:none"
               d="m 560.67517,65.335736 c -0.59422,-0.22727 -0.33929,-0.953066 0.0241,-0.976116 4.0944,0.9128 8.30511,1.119146 13.0117,-0.02358 0.231,-0.0272 0.45813,0.47448 -0.0117,0.92837 -4.17546,1.49719 -9.41882,1.162017 -13.02418,0.0713 z"
               id="path12399"
               inkscape:connector-curvature="0"
               sodipodi:nodetypes="cccccc" />
            <path
               style="fill:#f7fafa;fill-opacity:1;stroke:none"
               d="m 552.07305,87.429807 c 2.5764,2.357598 17.54725,2.341767 24.63828,1.923159 l -0.0717,23.288374 c -1.71101,0.36336 -20.26514,2.0369 -24.91392,-2.48195 0.17026,-8.73648 -0.0572,-20.493849 0.11628,-22.916645 z"
               id="path5372-9"
               inkscape:connector-curvature="0"
               sodipodi:nodetypes="cccccc" />
            <path
               style="fill:none;stroke:#1e1e1e;stroke-width:0.29623336;stroke-linecap:round;stroke-linejoin:miter;stroke-miterlimit:4;stroke-opacity:1;stroke-dasharray:none"
               d="m 551.64011,108.3312 c 2.18291,1.44659 9.20567,3.36942 21.5736,2.50262"
               id="path5387-3-3"
               inkscape:connector-curvature="0"
               sodipodi:nodetypes="cc" />
            <path
               style="fill:none;stroke:#1e1e1e;stroke-width:1.02681637;stroke-linecap:butt;stroke-linejoin:miter;stroke-miterlimit:4;stroke-opacity:1;stroke-dasharray:none"
               d="m 551.57609,100.92377 c 3.60475,1.616 7.86541,1.9289 9.97498,1.81879"
               id="path5379-48-9-1"
               inkscape:connector-curvature="0"
               sodipodi:nodetypes="cc" />
            <path
               style="fill:none;stroke:#1e1e1e;stroke-width:0.29623336;stroke-linecap:round;stroke-linejoin:miter;stroke-miterlimit:4;stroke-opacity:1;stroke-dasharray:none"
               d="m 551.71937,96.912097 c 2.81554,1.574975 8.4323,1.935631 11.37468,1.893359"
               id="path5379-8"
               inkscape:connector-curvature="0"
               sodipodi:nodetypes="cc" />
            <path
               style="fill:#382e3f;fill-opacity:1;stroke:none"
               d="m 564.55467,94.640821 8.89336,0 0,10.495039 c -2.72563,0.46612 -6.22425,0.38941 -8.89336,0.10832 z"
               id="rect5374-2"
               inkscape:connector-curvature="0"
               sodipodi:nodetypes="ccccc" />
            <path
               style="fill:#09090a;fill-opacity:1;stroke:none"
               d="m 551.79662,90.114633 c 5.59448,3.044601 17.29375,2.353062 24.87842,1.841617 l 0,2.906329 c -7.51069,0.316355 -19.546,1.03538 -24.90466,-1.732245 z"
               id="rect5369-5"
               inkscape:connector-curvature="0"
               sodipodi:nodetypes="ccccc" />
            <path
               style="fill:none;stroke:#1e1e1e;stroke-width:0.29623336;stroke-linecap:round;stroke-linejoin:miter;stroke-miterlimit:4;stroke-opacity:1;stroke-dasharray:none"
               d="m 551.70756,97.661468 c 2.81554,1.574975 8.4323,1.935631 11.37469,1.893359"
               id="path5379-9-9"
               inkscape:connector-curvature="0"
               sodipodi:nodetypes="cc" />
            <path
               style="fill:none;stroke:#1e1e1e;stroke-width:0.29623336;stroke-linecap:round;stroke-linejoin:miter;stroke-miterlimit:4;stroke-opacity:1;stroke-dasharray:none"
               d="m 551.65377,96.100814 c 2.81554,1.574975 8.4323,1.93563 11.37469,1.893358"
               id="path5379-2-3"
               inkscape:connector-curvature="0"
               sodipodi:nodetypes="cc" />
            <path
               style="fill:none;stroke:#1e1e1e;stroke-width:0.2515659;stroke-linecap:round;stroke-linejoin:miter;stroke-miterlimit:4;stroke-opacity:1;stroke-dasharray:none"
               d="m 551.70342,95.270344 c 1.86367,1.083191 4.94748,1.634058 7.25902,1.754881"
               id="path5379-2-7-28"
               inkscape:connector-curvature="0"
               sodipodi:nodetypes="cc" />
            <path
               style="fill:none;stroke:#1e1e1e;stroke-width:0.2515659;stroke-linecap:round;stroke-linejoin:miter;stroke-miterlimit:4;stroke-opacity:1;stroke-dasharray:none"
               d="m 551.72135,94.611012 c 1.84574,1.064827 4.94749,1.634054 7.25903,1.754878"
               id="path5379-2-7-2-7"
               inkscape:connector-curvature="0"
               sodipodi:nodetypes="cc" />
            <path
               style="fill:none;stroke:#1e1e1e;stroke-width:0.29623336;stroke-linecap:round;stroke-linejoin:miter;stroke-miterlimit:4;stroke-opacity:1;stroke-dasharray:none"
               d="m 551.68341,104.74071 c 2.18292,1.44658 9.20568,3.36941 21.57361,2.50262"
               id="path5387-48"
               inkscape:connector-curvature="0"
               sodipodi:nodetypes="cc" />
            <path
               style="fill:none;stroke:#1e1e1e;stroke-width:0.29623336;stroke-linecap:round;stroke-linejoin:miter;stroke-miterlimit:4;stroke-opacity:1;stroke-dasharray:none"
               d="m 551.70261,107.63012 c 2.18291,1.44659 9.14317,3.36942 21.5111,2.50262"
               id="path5387-7-1"
               inkscape:connector-curvature="0"
               sodipodi:nodetypes="cc" />
            <path
               style="fill:none;stroke:#1e1e1e;stroke-width:0.29623336;stroke-linecap:round;stroke-linejoin:miter;stroke-miterlimit:4;stroke-opacity:1;stroke-dasharray:none"
               d="m 551.67136,106.93961 c 2.18291,1.44659 9.17442,3.30692 21.54235,2.44012"
               id="path5387-4-4"
               inkscape:connector-curvature="0"
               sodipodi:nodetypes="cc" />
            <path
               style="fill:none;stroke:#1e1e1e;stroke-width:0.29623336;stroke-linecap:round;stroke-linejoin:miter;stroke-miterlimit:4;stroke-opacity:1;stroke-dasharray:none"
               d="m 551.72207,105.41774 c 2.18291,1.44659 9.17443,3.40067 21.54235,2.53388"
               id="path5387-5-3"
               inkscape:connector-curvature="0"
               sodipodi:nodetypes="cc" />
            <path
               style="fill:none;stroke:#1e1e1e;stroke-width:0.29623336;stroke-linecap:round;stroke-linejoin:miter;stroke-miterlimit:4;stroke-opacity:1;stroke-dasharray:none"
               d="m 551.63422,106.17604 c 2.18291,1.44659 9.23693,3.36941 21.60485,2.50262"
               id="path5387-8-5"
               inkscape:connector-curvature="0"
               sodipodi:nodetypes="cc" />
            <path
               style="fill:none;stroke:#1e1e1e;stroke-width:1.02681637;stroke-linecap:butt;stroke-linejoin:miter;stroke-miterlimit:4;stroke-opacity:1;stroke-dasharray:none"
               d="m 551.55628,102.60813 c 3.60475,1.61599 7.92791,1.89765 10.03749,1.78753"
               id="path5379-48-9-5-5"
               inkscape:connector-curvature="0"
               sodipodi:nodetypes="cc" />
          </g>
          <g
             id="g4522">
            <path
               style="fill:none;stroke:#1e1e1e;stroke-width:0.484;stroke-linecap:butt;stroke-linejoin:miter;stroke-miterlimit:4;stroke-opacity:1;stroke-dasharray:none"
               d="m 560.66782,65.580229 c 3.5013,0.901719 9.3354,1.331096 13.04682,-0.09343"
               id="path12355"
               inkscape:connector-curvature="0"
               sodipodi:nodetypes="cc" />
            <path
               style="fill:none;stroke:#1e1e1e;stroke-width:0.484;stroke-linecap:butt;stroke-linejoin:miter;stroke-miterlimit:4;stroke-opacity:1;stroke-dasharray:none"
               d="m 560.79051,64.169447 c 2.66773,0.927431 9.48584,1.070933 12.68786,-0.01715"
               id="path12355-2"
               inkscape:connector-curvature="0"
               sodipodi:nodetypes="cc" />
            <path
               style="fill:none;stroke:#1e1e1e;stroke-width:0.48427749;stroke-linecap:butt;stroke-linejoin:miter;stroke-miterlimit:4;stroke-opacity:1;stroke-dasharray:none"
               d="m 573.46741,64.156392 c 0.54845,-0.195426 0.99785,0.823547 0.21785,1.315401 0.23253,0.920373 0.75757,1.458903 1.37588,1.50016 3.36518,0.224574 6.96065,4.314524 6.94889,9.485156 l -0.25672,50.422971"
               id="path4088"
               inkscape:connector-curvature="0"
               sodipodi:nodetypes="ccccc" />
          </g>
        </g>
        <path
           style="fill:none;stroke:#1e1e1e;stroke-width:0.48427749;stroke-linecap:butt;stroke-linejoin:miter;stroke-miterlimit:4;stroke-opacity:1;stroke-dasharray:none"
           d="m 551.56126,126.88008 0.0746,-49.581296 c 0.01,-5.813841 4.22895,-10.125716 7.63716,-10.371669 0.83051,-0.213163 1.1886,-0.294089 1.38074,-1.365273 -1.03437,-0.547047 -0.20479,-1.496745 0.16917,-1.371695"
           id="path4086"
           inkscape:connector-curvature="0"
           sodipodi:nodetypes="ccccc" />
      </g>
      <path
         sodipodi:nodetypes="cc"
         inkscape:connector-curvature="0"
         id="path5379-48-4"
         d="m 551.6717,99.167038 c 2.81554,1.574972 8.4323,1.935632 11.37468,1.893352"
         style="fill:none;stroke:#1e1e1e;stroke-width:0.29623336;stroke-linecap:round;stroke-linejoin:miter;stroke-miterlimit:4;stroke-opacity:1;stroke-dasharray:none" />
      <path
         sodipodi:nodetypes="cc"
         inkscape:connector-curvature="0"
         id="path5379-4-5"
         d="m 551.68963,98.41425 c 2.81553,1.574973 8.4323,1.93563 11.37469,1.89336"
         style="fill:none;stroke:#1e1e1e;stroke-width:0.29623336;stroke-linecap:round;stroke-linejoin:miter;stroke-miterlimit:4;stroke-opacity:1;stroke-dasharray:none" />
    </g>
    <path
       style="fill:#36363b;fill-opacity:1;stroke:#000000;stroke-width:0.23893969;stroke-linecap:butt;stroke-linejoin:miter;stroke-miterlimit:4;stroke-opacity:1;stroke-dasharray:none"
       d="m 18.714918,14.11472 c 0,0.694421 0,0.05261 0.0125,0.729838 0.398801,1.525493 7.621492,1.465016 7.997358,0.02798 l 0.0087,-0.868815 z"
       id="path5864"
       inkscape:connector-curvature="0"
       sodipodi:nodetypes="ccccc" />
    <path
       style="fill:#63636e;fill-opacity:1;stroke:#000000;stroke-width:0.23893969;stroke-linecap:round;stroke-linejoin:round;stroke-miterlimit:4;stroke-opacity:1;stroke-dasharray:none"
       d="m 26.777085,13.921648 c -0.0356,1.842874 -7.886828,1.913655 -8.09678,0.04513 -0.01731,-1.255058 8.070672,-1.264777 8.09678,-0.04513 z"
       id="path5861"
       inkscape:connector-curvature="0"
       sodipodi:nodetypes="ccc" />
    <path
       style="fill:#2f2f2f;fill-opacity:1;stroke:#000000;stroke-width:0.23893969;stroke-linecap:round;stroke-linejoin:round;stroke-miterlimit:4;stroke-opacity:1;stroke-dasharray:none"
       d="m 25.508044,8.3651294 0.318895,0.1059598 0.160003,4.7351038 -0.362214,-0.225167 z"
       id="rect5886-8-4-8-0"
       inkscape:connector-curvature="0"
       sodipodi:nodetypes="ccccc" />
    <path
       style="fill:#36363b;fill-opacity:1;stroke:#000000;stroke-width:0.23893969;stroke-linecap:round;stroke-linejoin:round;stroke-miterlimit:4;stroke-opacity:1;stroke-dasharray:none"
       d="m 19.221842,9.2392415 7.164905,0 0,4.6538025 c -1.313317,1.39556 -6.85548,1.063587 -7.164905,0 z"
       id="rect5485"
       inkscape:connector-curvature="0"
       sodipodi:nodetypes="ccccc" />
    <path
       style="fill:#2f2f2f;fill-opacity:1;stroke:#000000;stroke-width:0.23893969;stroke-linecap:round;stroke-linejoin:round;stroke-miterlimit:4;stroke-opacity:1;stroke-dasharray:none"
       d="m 26.123669,8.5865442 0.275674,0.2129409 -0.164565,4.6518969 -0.05928,-0.201393 z"
       id="rect5886-8-4-8-9"
       inkscape:connector-curvature="0"
       sodipodi:nodetypes="ccccc" />
    <path
       sodipodi:type="arc"
       style="fill:#000000;fill-opacity:1;stroke:#000000;stroke-width:0.59110278;stroke-linecap:round;stroke-linejoin:round;stroke-miterlimit:4;stroke-opacity:1;stroke-dasharray:none"
       id="path5481"
       sodipodi:cx="208.00317"
       sodipodi:cy="352.35803"
       sodipodi:rx="8.0146036"
       sodipodi:ry="0.80683929"
       d="m 216.01778,352.35803 a 8.0146036,0.80683929 0 1 1 -16.02921,0 8.0146036,0.80683929 0 1 1 16.02921,0 z"
       transform="matrix(0.41552177,0,0,0.39323917,-63.63486,-129.31471)" />
    <path
       inkscape:connector-curvature="0"
       style="fill:#63636e;fill-opacity:1;stroke:#000000;stroke-width:0.2384363;stroke-miterlimit:4;stroke-opacity:1;stroke-dasharray:none"
       d="m 26.385739,9.1007628 c 0.01008,0.4412289 -0.968752,1.4451272 -3.742311,1.3744362 -3.100623,-0.07903 -3.650815,-0.7492419 -3.656488,-1.3213495 -0.0058,-0.5678563 1.726968,-1.0019745 3.6875,-1.0019745 1.960527,0 3.696253,0.2946135 3.711299,0.9488878 z"
       id="path5789-3"
       inkscape:transform-center-x="5.0861077"
       inkscape:transform-center-y="-2.2610366"
       sodipodi:nodetypes="sssss" />
    <path
       style="fill:#36363b;fill-opacity:1;stroke:#000000;stroke-width:0.25145236;stroke-linecap:round;stroke-linejoin:round;stroke-miterlimit:4;stroke-opacity:1;stroke-dasharray:none"
       d="m 25.662663,8.2933368 c 0.01344,0.7828207 0.0053,0.00698 0.01344,0.7947526 -0.739569,0.8887469 -4.982645,1.0596826 -5.772213,-0.016338 -0.03079,-0.7783646 0.01488,0.011211 -0.03028,-0.7783646 1.128558,-0.068577 1.911731,9.331e-4 2.831541,9.331e-4 1.410382,-0.067712 2.379904,-0.2738745 2.95779,-9.331e-4 z"
       id="path5769"
       inkscape:connector-curvature="0"
       sodipodi:nodetypes="ccccccc" />
    <path
       style="fill:#63636e;fill-opacity:1;stroke:#000000;stroke-width:0.25076741;stroke-miterlimit:4;stroke-opacity:1;stroke-dasharray:none"
       d="m 25.679486,8.2980536 c 0,0.3913628 -1.40894,0.9450211 -3.006586,0.9450211 -1.597692,0 -2.80101,-0.5369619 -2.80101,-0.9450211 0,-0.4414332 1.341057,-0.7548379 2.938801,-0.7548379 1.597641,0 2.868795,0.3634892 2.868795,0.7548379 z"
       id="path5789"
       inkscape:connector-curvature="0"
       sodipodi:nodetypes="sssss" />
    <path
       style="fill:#36363b;fill-opacity:1;stroke:#000000;stroke-width:0.25145236;stroke-linecap:round;stroke-linejoin:round;stroke-miterlimit:4;stroke-opacity:1;stroke-dasharray:none"
       d="m 24.722133,3.320335 c 0.01731,4.9730018 0.0053,0.2437117 0.0053,5.0471169 -1.322261,0.490934 -2.792165,0.4880741 -3.884566,0.037333 0,-4.3698287 -0.02067,-0.1114175 -0.0091,-4.9042493 -0.08365,-1.7125085 0.951634,-2.3537768 1.900963,-2.3537768 1.157401,-0.014015 1.987788,0.5486135 1.987788,2.1736591 z"
       id="path5483"
       inkscape:connector-curvature="0"
       sodipodi:nodetypes="ccccccc" />
    <path
       style="fill:#63636e;fill-opacity:1;stroke:#000000;stroke-width:0.23466699;stroke-linecap:round;stroke-linejoin:round;stroke-miterlimit:4;stroke-opacity:1;stroke-dasharray:none"
       d="m 19.715208,9.8196522 0.354036,0.171216 -0.02547,4.6210218 -0.324042,-0.133363 z"
       id="rect5886"
       inkscape:connector-curvature="0"
       sodipodi:nodetypes="ccccc" />
    <path
       style="fill:#63636e;fill-opacity:1;stroke:#000000;stroke-width:0.23531036;stroke-linecap:round;stroke-linejoin:round;stroke-miterlimit:4;stroke-opacity:1;stroke-dasharray:none"
       d="m 20.492516,10.081381 0.355959,0.149503 0.0048,4.554835 -0.354325,-0.0768 z"
       id="rect5886-9"
       inkscape:connector-curvature="0"
       sodipodi:nodetypes="ccccc" />
    <path
       style="fill:#63636e;fill-opacity:1;stroke:#000000;stroke-width:0.23679344;stroke-linecap:round;stroke-linejoin:round;stroke-miterlimit:4;stroke-opacity:1;stroke-dasharray:none"
       d="m 21.235304,10.240555 0.364277,0.08024 -3.83e-4,4.587144 -0.356681,-0.05302 z"
       id="rect5886-8"
       inkscape:connector-curvature="0"
       sodipodi:nodetypes="ccccc" />
    <path
       style="fill:#63636e;fill-opacity:1;stroke:#000000;stroke-width:0.23754743;stroke-linecap:round;stroke-linejoin:round;stroke-miterlimit:4;stroke-opacity:1;stroke-dasharray:none"
       d="m 21.9929,10.323757 0.363605,0.04584 -0.0082,4.587049 -0.36577,-0.01947 z"
       id="rect5886-8-5"
       inkscape:connector-curvature="0"
       sodipodi:nodetypes="ccccc" />
    <path
       style="fill:#63636e;fill-opacity:1;stroke:#000000;stroke-width:0.23793092;stroke-linecap:round;stroke-linejoin:round;stroke-miterlimit:4;stroke-opacity:1;stroke-dasharray:none"
       d="m 22.771939,10.362119 0.363125,-0.02456 0.03028,4.614861 -0.393749,0.02156 z"
       id="rect5886-8-0"
       inkscape:connector-curvature="0"
       sodipodi:nodetypes="ccccc" />
    <path
       style="fill:#63636e;fill-opacity:1;stroke:#000000;stroke-width:0.23755604;stroke-linecap:round;stroke-linejoin:round;stroke-miterlimit:4;stroke-opacity:1;stroke-dasharray:none"
       d="m 23.615544,10.323026 0.374377,-0.04783 0,4.618233 -0.340529,0.04584 z"
       id="rect5886-8-2"
       inkscape:connector-curvature="0"
       sodipodi:nodetypes="ccccc" />
    <path
       style="fill:#63636e;fill-opacity:1;stroke:#000000;stroke-width:0.23657994;stroke-linecap:round;stroke-linejoin:round;stroke-miterlimit:4;stroke-opacity:1;stroke-dasharray:none"
       d="m 24.393911,10.230348 0.3862,-0.105224 -0.0063,4.628137 -0.34024,0.06151 z"
       id="rect5886-8-8"
       inkscape:connector-curvature="0"
       sodipodi:nodetypes="ccccc" />
    <path
       style="fill:#63636e;fill-opacity:1;stroke:#000000;stroke-width:0.23594759;stroke-linecap:round;stroke-linejoin:round;stroke-miterlimit:4;stroke-opacity:1;stroke-dasharray:none"
       d="m 25.219586,9.9671321 0.366731,-0.1622672 -0.01152,4.7156101 -0.320673,0.134954 z"
       id="rect5886-8-6"
       inkscape:connector-curvature="0"
       sodipodi:nodetypes="ccccc" />
    <path
       style="fill:#63636e;fill-opacity:1;stroke:#000000;stroke-width:0.23507756;stroke-linecap:round;stroke-linejoin:round;stroke-miterlimit:4;stroke-opacity:1;stroke-dasharray:none"
       d="m 25.918481,9.5944369 0.313269,-0.16563 0.05236,4.7233671 -0.335197,0.174047 z"
       id="rect5886-8-02"
       inkscape:connector-curvature="0"
       sodipodi:nodetypes="ccccc" />
    <path
       style="fill:#63636e;fill-opacity:1;stroke:#000000;stroke-width:0.23508345;stroke-linecap:round;stroke-linejoin:round;stroke-miterlimit:4;stroke-opacity:1;stroke-dasharray:none"
       d="m 18.995207,9.3640256 0.355146,0.2494353 0.0053,4.6380841 -0.340721,-0.240667 z"
       id="rect5886-8-4"
       inkscape:connector-curvature="0"
       sodipodi:nodetypes="ccccc" />
    <rect
       style="fill:#f7fafa;fill-opacity:1;stroke:none"
       id="rect5804"
       width="4.0955262"
       height="1.9360667"
       x="17.095751"
       y="33.202415" />
    <path
       inkscape:connector-curvature="0"
       id="path6333"
       style="font-size:8px;font-style:normal;font-weight:bold;line-height:125%;letter-spacing:0px;word-spacing:0px;fill:none;stroke:none;font-family:Sans;-inkscape-font-specification:Sans Bold"
       d="m 15.243312,34.296022 0,-0.357554 -0.360371,0 0,-0.246818 0.360371,0 0,-0.357555 0.240247,0 0,0.357555 0.361309,0 0,0.246818 -0.361309,0 0,0.357554 z" />
    <path
       inkscape:connector-curvature="0"
       id="path6335"
       style="font-size:8px;font-style:normal;font-weight:bold;line-height:125%;letter-spacing:0px;word-spacing:0px;fill:none;stroke:none;font-family:Sans;-inkscape-font-specification:Sans Bold"
       d="m 16.365717,34.296022 0,-0.357554 -0.360371,0 0,-0.246818 0.360371,0 0,-0.357555 0.240247,0 0,0.357555 0.361307,0 0,0.246818 -0.361307,0 0,0.357554 z" />
    <path
       style="font-size:8px;font-style:normal;font-weight:bold;line-height:125%;letter-spacing:0px;word-spacing:0px;fill:none;stroke:#333333;stroke-width:0.09330979;stroke-miterlimit:4;stroke-opacity:1;stroke-dasharray:none;font-family:Sans;-inkscape-font-specification:Sans Bold"
       inkscape:connector-curvature="0"
       id="path6337"
       d="m 18.003634,34.604735 -0.263709,0 0,-0.993834 c -0.09635,0.09009 -0.209904,0.156725 -0.340663,0.199892 l 0,-0.239307 c 0.06882,-0.02251 0.143586,-0.06522 0.224295,-0.128102 0.08071,-0.06287 0.136075,-0.136232 0.166106,-0.220069 l 0.213971,0 z" />
    <path
       style="font-size:8px;font-style:normal;font-weight:bold;line-height:125%;letter-spacing:0px;word-spacing:0px;fill:none;stroke:#333333;stroke-width:0.09330979;stroke-miterlimit:4;stroke-opacity:1;stroke-dasharray:none;font-family:Sans;-inkscape-font-specification:Sans Bold"
       inkscape:connector-curvature="0"
       id="path6339"
       d="m 18.755943,33.33401 c 0.13326,0 0.237431,0.04755 0.312508,0.142647 0.08947,0.112615 0.1342,0.299371 0.1342,0.560263 0,0.260266 -0.04505,0.447335 -0.135139,0.561202 -0.07445,0.09385 -0.178309,0.140768 -0.311569,0.140768 -0.13389,0 -0.241811,-0.05146 -0.323772,-0.154376 -0.08196,-0.102919 -0.122939,-0.286388 -0.122939,-0.55041 0,-0.259015 0.04505,-0.445456 0.135139,-0.559324 0.07445,-0.09385 0.178309,-0.14077 0.311572,-0.14077 z m 0,0.218661 c -0.03191,2e-6 -0.06038,0.01016 -0.0854,0.0305 -0.02503,0.02032 -0.04442,0.05678 -0.05819,0.109332 -0.01814,0.06819 -0.02721,0.183001 -0.02721,0.344416 0,0.161417 0.0081,0.27231 0.0244,0.332684 0.01627,0.06038 0.03676,0.100574 0.06147,0.120594 0.02471,0.02001 0.05302,0.03003 0.08493,0.03003 0.03191,0 0.06037,-0.01016 0.0854,-0.0305 0.02502,-0.02032 0.04442,-0.05677 0.05818,-0.109329 0.01814,-0.06757 0.02721,-0.182061 0.02721,-0.343478 0,-0.161415 -0.0081,-0.272311 -0.0244,-0.332687 -0.01627,-0.06037 -0.03675,-0.100726 -0.06147,-0.121061 -0.02471,-0.02032 -0.05302,-0.0305 -0.08493,-0.0305 z" />
    <path
       style="font-size:8px;font-style:normal;font-weight:bold;line-height:125%;letter-spacing:0px;word-spacing:0px;fill:none;stroke:#333333;stroke-width:0.09330979;stroke-miterlimit:4;stroke-opacity:1;stroke-dasharray:none;font-family:Sans;-inkscape-font-specification:Sans Bold"
       inkscape:connector-curvature="0"
       id="path6341"
       d="m 19.870069,33.422567 c 0.133263,0 0.237431,0.04755 0.312508,0.142647 0.08947,0.112615 0.1342,0.299371 0.134202,0.560263 -2e-6,0.260266 -0.04505,0.447335 -0.135139,0.561202 -0.07445,0.09385 -0.178308,0.140768 -0.311571,0.140768 -0.133887,0 -0.241811,-0.05146 -0.323769,-0.154376 -0.08196,-0.102919 -0.122939,-0.286388 -0.122939,-0.55041 0,-0.259015 0.04505,-0.445456 0.135139,-0.559324 0.07445,-0.09385 0.178306,-0.14077 0.311569,-0.14077 z m 0,0.218661 c -0.03191,2e-6 -0.06037,0.01016 -0.0854,0.0305 -0.02502,0.02032 -0.04442,0.05678 -0.05818,0.109332 -0.01814,0.06819 -0.02722,0.183001 -0.02722,0.344416 0,0.161417 0.0081,0.27231 0.0244,0.332684 0.01626,0.06038 0.03675,0.100574 0.06147,0.120594 0.02471,0.02001 0.05302,0.03003 0.08493,0.03003 0.03191,0 0.06037,-0.01016 0.0854,-0.0305 0.02503,-0.02032 0.04442,-0.05677 0.05819,-0.109329 0.01814,-0.06757 0.02721,-0.182061 0.02721,-0.343478 0,-0.161415 -0.0081,-0.272311 -0.0244,-0.332687 -0.01627,-0.06037 -0.03676,-0.100726 -0.06147,-0.121061 -0.02471,-0.02032 -0.05303,-0.0305 -0.08493,-0.0305 z" />
    <path
       inkscape:connector-curvature="0"
       id="path6343"
       style="font-size:8px;font-style:normal;font-weight:bold;line-height:125%;letter-spacing:0px;word-spacing:0px;fill:none;stroke:none;font-family:Sans;-inkscape-font-specification:Sans Bold"
       d="m 20.697669,34.296022 0,-0.357554 -0.36037,0 0,-0.246818 0.36037,0 0,-0.357555 0.240247,0 0,0.357555 0.361307,0 0,0.246818 -0.361307,0 0,0.357554 z" />
    <path
       inkscape:connector-curvature="0"
       id="path6345"
       style="font-size:8px;font-style:normal;font-weight:bold;line-height:125%;letter-spacing:0px;word-spacing:0px;fill:none;stroke:none;font-family:Sans;-inkscape-font-specification:Sans Bold"
       d="m 21.820071,34.296022 0,-0.357554 -0.36037,0 0,-0.246818 0.36037,0 0,-0.357555 0.240247,0 0,0.357555 0.36131,0 0,0.246818 -0.36131,0 0,0.357554 z" />
    <path
       style="font-size:8px;font-style:normal;font-weight:bold;line-height:125%;letter-spacing:0px;word-spacing:0px;fill:none;stroke:none;font-family:Sans;-inkscape-font-specification:Sans Bold"
       inkscape:connector-curvature="0"
       id="path6298"
       d="m 16.526454,35.063919 0.01617,-0.143404 -0.144528,-0.01633 0.01143,-0.09895 0.14453,0.01633 0.01617,-0.143403 0.09632,0.01102 -0.01617,0.143403 0.144903,0.01636 -0.01143,0.09895 -0.144904,-0.01636 -0.01617,0.143404 z" />
    <path
       style="font-size:8px;font-style:normal;font-weight:bold;line-height:125%;letter-spacing:0px;word-spacing:0px;fill:none;stroke:none;font-family:Sans;-inkscape-font-specification:Sans Bold"
       inkscape:connector-curvature="0"
       id="path6300"
       d="m 16.976527,35.115197 0.01617,-0.143402 -0.144526,-0.01632 0.01143,-0.09894 0.144525,0.01632 0.01617,-0.143404 0.09633,0.01102 -0.01617,0.143404 0.144903,0.01636 -0.01143,0.09894 -0.144904,-0.01635 -0.01617,0.143404 z" />
    <path
       style="font-size:8px;font-style:normal;font-weight:bold;line-height:125%;letter-spacing:0px;word-spacing:0px;fill:#000000;fill-opacity:1;stroke:none;font-family:Sans;-inkscape-font-specification:Sans Bold"
       inkscape:connector-curvature="0"
       id="path6302"
       d="m 17.334014,34.831525 0.09747,0.01116 -0.0063,0.05458 c 0.0397,-0.03843 0.08364,-0.05489 0.131805,-0.0494 0.02561,0.003 0.04725,0.01037 0.0648,0.02341 0.01761,0.01267 0.03124,0.03038 0.04085,0.05306 0.02,-0.01931 0.04075,-0.0331 0.06227,-0.04132 0.02152,-0.0084 0.04383,-0.01094 0.0669,-0.0084 0.02937,0.0033 0.05352,0.01204 0.07246,0.02637 0.01896,0.01421 0.03216,0.03346 0.03956,0.05769 0.0055,0.0179 0.0059,0.0459 0.0015,0.08403 l -0.02944,0.255475 -0.105773,-0.01182 0.02605,-0.228421 c 0.0046,-0.03962 0.004,-0.0656 -0.0021,-0.078 -0.008,-0.0162 -0.02229,-0.02543 -0.04259,-0.02773 -0.01482,-0.0017 -0.02927,0.0015 -0.04331,0.0088 -0.01411,0.0078 -0.025,0.01975 -0.03276,0.0365 -0.0078,0.0168 -0.01403,0.04393 -0.01831,0.08158 l -0.02194,0.191911 -0.105774,-0.01182 0.02464,-0.219058 c 0.0045,-0.03889 0.0058,-0.06415 0.0028,-0.07592 -0.0026,-0.01177 -0.0073,-0.02082 -0.01462,-0.02722 -0.007,-0.0069 -0.01768,-0.01038 -0.03126,-0.01171 -0.01632,-0.0019 -0.03151,0.0011 -0.04553,0.0083 -0.01406,0.0075 -0.02483,0.0189 -0.03238,0.03483 -0.0076,0.01593 -0.01369,0.04303 -0.01808,0.08141 l -0.02228,0.19416 -0.105776,-0.01182 z" />
    <path
       style="font-size:8px;font-style:normal;font-weight:bold;line-height:125%;letter-spacing:0px;word-spacing:0px;fill:#000000;fill-opacity:1;stroke:none;font-family:Sans;-inkscape-font-specification:Sans Bold"
       inkscape:connector-curvature="0"
       id="path6304"
       d="m 18.032985,34.856271 0.01128,-0.09783 0.105773,0.01182 -0.01128,0.09783 z m -0.05167,0.45384 0.04555,-0.399645 0.105774,0.01182 -0.04556,0.399644 z" />
    <path
       style="font-size:8px;font-style:normal;font-weight:bold;line-height:125%;letter-spacing:0px;word-spacing:0px;fill:#000000;fill-opacity:1;stroke:none;font-family:Sans;-inkscape-font-specification:Sans Bold"
       inkscape:connector-curvature="0"
       id="path6306"
       d="m 18.195024,35.334461 0.06286,-0.551679 0.105774,0.01182 -0.06286,0.551676 z" />
    <path
       style="font-size:8px;font-style:normal;font-weight:bold;line-height:125%;letter-spacing:0px;word-spacing:0px;fill:#000000;fill-opacity:1;stroke:none;font-family:Sans;-inkscape-font-specification:Sans Bold"
       inkscape:connector-curvature="0"
       id="path6308"
       d="m 18.408771,35.358816 0.06286,-0.551679 0.105773,0.01182 -0.06287,0.551677 z" />
    <path
       style="font-size:8px;font-style:normal;font-weight:bold;line-height:125%;letter-spacing:0px;word-spacing:0px;fill:#000000;fill-opacity:1;stroke:none;font-family:Sans;-inkscape-font-specification:Sans Bold"
       inkscape:connector-curvature="0"
       id="path6310"
       d="m 18.674227,34.92933 0.01128,-0.09783 0.105774,0.01182 -0.01128,0.09783 z m -0.05167,0.453841 0.04554,-0.399643 0.105775,0.01182 -0.04555,0.399641 z" />
    <path
       style="font-size:8px;font-style:normal;font-weight:bold;line-height:125%;letter-spacing:0px;word-spacing:0px;fill:#000000;fill-opacity:1;stroke:none;font-family:Sans;-inkscape-font-specification:Sans Bold"
       inkscape:connector-curvature="0"
       id="path6312"
       d="m 18.836265,35.407519 0.06286,-0.551676 0.105775,0.01182 -0.06286,0.551677 z" />
    <path
       style="font-size:8px;font-style:normal;font-weight:bold;line-height:125%;letter-spacing:0px;word-spacing:0px;fill:#000000;fill-opacity:1;stroke:none;font-family:Sans;-inkscape-font-specification:Sans Bold"
       inkscape:connector-curvature="0"
       id="path6314"
       d="m 19.101721,34.978036 0.01128,-0.09782 0.105773,0.01182 -0.01128,0.09784 z m -0.05167,0.453844 0.04555,-0.399648 0.105773,0.01182 -0.04555,0.399646 z" />
    <path
       style="font-size:8px;font-style:normal;font-weight:bold;line-height:125%;letter-spacing:0px;word-spacing:0px;fill:#000000;fill-opacity:1;stroke:none;font-family:Sans;-inkscape-font-specification:Sans Bold"
       inkscape:connector-curvature="0"
       id="path6316"
       d="m 19.49256,35.077461 -0.0098,0.08427 -0.07227,-0.0082 -0.01859,0.16103 c -0.0037,0.03261 -0.005,0.05171 -0.0044,0.05725 5.8e-4,0.0056 0.0036,0.01057 0.0081,0.01446 0.0043,0.0042 0.01031,0.0063 0.01727,0.0071 0.0097,0.0011 0.02432,-4.28e-4 0.04368,-0.0052 l -4.61e-4,0.08305 c -0.0258,0.0076 -0.05423,0.0097 -0.08534,0.0063 -0.01908,-0.0021 -0.0359,-0.0073 -0.05049,-0.01533 -0.01458,-0.0079 -0.02485,-0.0177 -0.03086,-0.02867 -0.0062,-0.01107 -0.0093,-0.02526 -0.0102,-0.04289 -0.0011,-0.0126 8.15e-4,-0.03753 0.005,-0.0749 l 0.01999,-0.174215 -0.04857,-0.0055 0.0098,-0.08426 0.04857,0.0055 0.0091,-0.07941 0.113156,-0.04962 -0.01629,0.141093 z" />
    <path
       style="font-size:8px;font-style:normal;font-weight:bold;line-height:125%;letter-spacing:0px;word-spacing:0px;fill:#000000;fill-opacity:1;stroke:none;font-family:Sans;-inkscape-font-specification:Sans Bold"
       inkscape:connector-curvature="0"
       id="path6318"
       d="m 19.767085,35.384729 0.103356,0.02968 c -0.01795,0.03709 -0.0427,0.06407 -0.07422,0.08093 -0.03152,0.01686 -0.06925,0.02279 -0.113148,0.01779 -0.06952,-0.0077 -0.118336,-0.03648 -0.146528,-0.08569 -0.02221,-0.03938 -0.03014,-0.0868 -0.02381,-0.142237 0.0078,-0.0662 0.03079,-0.116125 0.06966,-0.149692 0.0389,-0.03357 0.0848,-0.04733 0.137743,-0.0413 0.05947,0.0069 0.104133,0.03178 0.134035,0.07493 0.02988,0.04318 0.03946,0.105215 0.02874,0.186061 l -0.264929,-0.03015 c -0.0025,0.03145 0.0029,0.05681 0.01723,0.07611 0.01432,0.01927 0.03363,0.03033 0.058,0.03312 0.01658,0.0021 0.03101,-0.0012 0.04331,-0.0088 0.01235,-0.0082 0.0225,-0.02132 0.03058,-0.04072 z m 0.01799,-0.106217 c 0.0027,-0.03072 -0.0027,-0.05487 -0.01575,-0.07251 -0.01322,-0.01765 -0.03063,-0.02768 -0.05222,-0.03016 -0.0231,-0.0026 -0.04307,0.0035 -0.06008,0.01871 -0.01696,0.01512 -0.02697,0.03707 -0.03002,0.06595 z" />
    <path
       style="font-size:8px;font-style:normal;font-weight:bold;line-height:125%;letter-spacing:0px;word-spacing:0px;fill:#000000;fill-opacity:1;stroke:none;font-family:Sans;-inkscape-font-specification:Sans Bold"
       inkscape:connector-curvature="0"
       id="path6320"
       d="m 20.051391,35.545967 -0.105774,-0.01182 0.04555,-0.399644 0.0982,0.0113 -0.0065,0.05682 c 0.01989,-0.02493 0.03698,-0.04089 0.05139,-0.0479 0.01441,-0.0072 0.03012,-0.0094 0.04716,-0.0076 0.0241,0.0028 0.04652,0.01209 0.06736,0.02787 l -0.04325,0.08846 c -0.0165,-0.01358 -0.03241,-0.02126 -0.0477,-0.023 -0.01482,-0.0017 -0.02779,6.46e-4 -0.03902,0.0079 -0.01127,0.0072 -0.02101,0.02078 -0.02932,0.04145 -0.0085,0.02064 -0.01669,0.06492 -0.02415,0.132955 z" />
    <path
       style="font-size:8px;font-style:normal;font-weight:bold;line-height:125%;letter-spacing:0px;word-spacing:0px;fill:#000000;fill-opacity:1;stroke:none;font-family:Sans;-inkscape-font-specification:Sans Bold"
       inkscape:connector-curvature="0"
       id="path6322"
       d="m 20.225444,35.450293 0.107966,-0.0041 c 0.002,0.02106 0.0096,0.03774 0.02212,0.04997 0.01258,0.01226 0.03129,0.01976 0.05613,0.02258 0.02735,0.003 0.04853,8.3e-5 0.06343,-0.0079 0.01025,-0.0056 0.01577,-0.01484 0.01714,-0.02665 8.33e-4,-0.008 -9.5e-4,-0.01498 -0.0051,-0.02081 -0.0044,-0.0058 -0.01599,-0.01152 -0.03379,-0.01793 -0.08316,-0.02855 -0.135261,-0.05186 -0.156318,-0.07003 -0.02915,-0.02519 -0.04155,-0.05695 -0.03715,-0.09535 0.004,-0.03464 0.0209,-0.06216 0.05097,-0.08263 0.03002,-0.02044 0.07375,-0.02741 0.131224,-0.02089 0.05471,0.0063 0.09432,0.01983 0.118882,0.04061 0.02454,0.02085 0.03988,0.04928 0.04595,0.08529 l -0.101822,0.007 c -0.0025,-0.01605 -0.0092,-0.02887 -0.02022,-0.03852 -0.01099,-0.0094 -0.02748,-0.01573 -0.04957,-0.01823 -0.02787,-0.0032 -0.04829,-0.0013 -0.06116,0.0049 -0.0088,0.0044 -0.01347,0.01127 -0.0145,0.02007 -7.86e-4,0.0075 0.0021,0.01436 0.0082,0.02037 0.0085,0.0079 0.04052,0.02177 0.09538,0.04099 0.05486,0.0192 0.0924,0.03936 0.112615,0.06048 0.01995,0.02133 0.02799,0.04881 0.02414,0.08243 -0.004,0.03664 -0.02308,0.06638 -0.05669,0.08922 -0.03363,0.02286 -0.08039,0.03085 -0.140351,0.02401 -0.05444,-0.0063 -0.09627,-0.02224 -0.125491,-0.04783 -0.02921,-0.02569 -0.04657,-0.05804 -0.05204,-0.09704 z" />
    <path
       style="font-size:8px;font-style:normal;font-weight:bold;line-height:125%;letter-spacing:0px;word-spacing:0px;fill:none;stroke:none;font-family:Sans;-inkscape-font-specification:Sans Bold"
       inkscape:connector-curvature="0"
       id="path6324"
       d="m 20.75486,34.978397 0,-0.144304 -0.14544,0 0,-0.09961 0.14544,0 0,-0.144304 0.09696,0 0,0.144304 0.145819,0 0,0.09961 -0.145819,0 0,0.144304 z" />
    <path
       style="font-size:8px;font-style:normal;font-weight:bold;line-height:125%;letter-spacing:0px;word-spacing:0px;fill:none;stroke:none;font-family:Sans;-inkscape-font-specification:Sans Bold"
       inkscape:connector-curvature="0"
       id="path6326"
       d="m 21.207845,34.978397 0,-0.144304 -0.14544,0 0,-0.09961 0.14544,0 0,-0.144304 0.09696,0 0,0.144304 0.145819,0 0,0.09961 -0.145819,0 0,0.144304 z" />
    <path
       style="fill:none;stroke:#161413;stroke-width:0.09676129;stroke-linecap:butt;stroke-linejoin:miter;stroke-miterlimit:4;stroke-opacity:1;stroke-dasharray:none"
       d="m 15.561985,26.543373 c 0.508319,0.803097 5.181105,1.49402 11.638287,1.030024 l -0.04732,10.888827 c -1.800762,0.467058 -9.657213,0.769573 -11.72221,-1.215868"
       id="path5343-2"
       inkscape:connector-curvature="0"
       sodipodi:nodetypes="cccc" />
  </g>
</svg>
