<?xml version="1.0" encoding="UTF-8" standalone="no"?>
<!-- Created with Inkscape (http://www.inkscape.org/) -->

<svg
        xmlns:dc="http://purl.org/dc/elements/1.1/"
        xmlns:cc="http://creativecommons.org/ns#"
        xmlns:rdf="http://www.w3.org/1999/02/22-rdf-syntax-ns#"
        xmlns:svg="http://www.w3.org/2000/svg"
        xmlns="http://www.w3.org/2000/svg"
        xmlns:sodipodi="http://sodipodi.sourceforge.net/DTD/sodipodi-0.dtd"
        xmlns:inkscape="http://www.inkscape.org/namespaces/inkscape"
        width="200px"
        height="200px"
        viewBox="0 0 50 50"
        id="svg5120"
        version="1.1"
        inkscape:version="0.48.4 r9939"
        sodipodi:docname="icon_2500LBottle.svg">
    <defs
            id="defs3479">
        <clipPath clipPathUnits="userSpaceOnUse" id="clippath1">
          <polyline points="
                                15,15.5
                                 14,17
                                13,19.7
                                 12.2,24
                                12.5,43.5
                                 13,44.6
                                 14,45.55
                                 15,46.15
                                 17,46.8
                                 19,47.15
                                 22,47.35
                                 25,47.4
                                 29,47.2
                                 31,46.94
                                 33,46.45
                                 34,46.05
                                 35,45.5
                                36,44.46
                                36.4,43.5
                                36.7,42.3
                                36.8,30
                                36.7,26
                                36.6,24
                                35.95,19.7
                                34.85,17
                                 33.8,15.5"
                    fill="blue"
                    stroke-width="0.4"
                    style="fill:white;stroke:yellow"/>

        </clipPath>
    </defs>


    <metadata
            id="metadata5125">
    </metadata>
    <g
            id="layer1"
            inkscape:label="Layer 1"
            inkscape:groupmode="layer">

        <!--    <g opacity={opacity}>-->
        <!--    <ellipse cx={24} cy={current_y} rx={14} ry={2.5} fill={fill}/>-->
        <!--    {/*<ellipse cx={24} cy={current_y} rx={14} ry={2.5} fill={top_eclipse_color} opacity={.6}/>*/}-->
        <!--    <g fill={fill} opacity={.6}>-->
        <!--    <rect width="28" height={(y_bot - y_top) * fill_percent} x="10" y={((current_y<y_top) ? y_top:current_y)}/>-->
        <!--    {/*<path d="M10 17h28v25H10z" />*/}-->
        <!--    <ellipse cx={24} cy={y_bot} rx={14} ry={4.5} />-->
        <!--  </g>-->
        <!--</g>-->




        <path
                id="path3025-8-3"
                style="fill:none;stroke:#1e1e1e;stroke-width:0.11690545;stroke-linecap:round;stroke-linejoin:round;stroke-miterlimit:4;stroke-opacity:1;stroke-dasharray:none"
                d="m 28.325774,41.682251 c -6.91809,-0.740376 -12.316948,-0.08347 -14.729432,1.729946"
                inkscape:connector-curvature="0"
                sodipodi:nodetypes="cc"/>
        <path
                id="path3027-2-3"
                style="fill:none;stroke:#1e1e1e;stroke-width:0.11690545;stroke-linecap:round;stroke-linejoin:round;stroke-miterlimit:4;stroke-opacity:1;stroke-dasharray:none"
                d="M 35.061796,43.309909 C 34.298053,42.767204 33.470783,42.481208 32.060739,42.27711"
                inkscape:connector-curvature="0"
                sodipodi:nodetypes="cc"/>
        <path
                sodipodi:nodetypes="cc"
                inkscape:connector-curvature="0"
                d="m 35.396964,43.932216 c -0.958181,3.431179 -19.61788,3.88102 -21.852692,0.229621"
                style="fill:none;stroke:#1e1e1e;stroke-width:0.11690545;stroke-linecap:round;stroke-linejoin:round;stroke-miterlimit:4;stroke-opacity:1;stroke-dasharray:none"
                id="path3037-7-5"/>
        <path
                sodipodi:type="arc"
                style="opacity:0;fill:#c0c5da;fill-opacity:0.65608467;stroke:none"
                id="path5330"
                sodipodi:cx="370.57166"
                sodipodi:cy="173.86267"
                sodipodi:rx="54.041702"
                sodipodi:ry="6.2355809"
                d="m 424.61336,173.86267 a 54.041702,6.2355809 0 1 1 -108.08341,0 54.041702,6.2355809 0 1 1 108.08341,0 z"
                transform="matrix(0.22802986,0,0,0.2338109,-59.928542,-9.1412263)"/>


       <path
                style="fill:none;stroke:#1e1e1e;stroke-width:0.11690545;stroke-linecap:round;stroke-linejoin:miter;stroke-miterlimit:4;stroke-opacity:1;stroke-dasharray:none"
                d="m 22.900473,43.470722 c -1.72805,0.616992 5.423033,0.531345 3.000261,0"
                id="path5078"
                inkscape:connector-curvature="0"
                sodipodi:nodetypes="cc"/>




        <path
                sodipodi:nodetypes="csccsscccccccccc"
                inkscape:connector-curvature="0"
                d="m 36.687693,41.826498 c -0.185622,1.943623 0.05541,5.563156 -12.341591,5.569502 -12.428709,0.0064 -11.838384,-3.586163 -11.880072,-5.38412 0,0 -0.354037,-12.095412 -0.354037,-14.608741 0.0512,-6.621471 1.337656,-9.915592 2.790978,-11.703982 1.803243,-2.218997 3.863374,-2.119876 4.139598,-3.182323 0.234793,-0.90312 -1.154909,-1.313253 -1.694871,-1.002965 -0.927037,0.815984 -2.515759,-0.310998 -0.927739,-1.6161309 0.249453,-0.2007454 0.218988,-0.5644827 0.144893,-0.9728264 -0.255836,-1.7495836 1.223439,-4.2959713 4.755176,-3.0329973 0.694933,0.2541641 0.641367,-2.1502209 0.610971,-3.0758385 0.07005,0.7526653 5.133178,0.6756761 5.096797,0.01791 -0.03058,3.5619688 1.192085,8.8449351 1.841448,9.5111911 1.886386,2.312474 7.64073,0.260949 7.903861,14.823363 0.05878,7.775494 -0.08597,12.270012 -0.08541,14.657949 z"
                style="fill:none;stroke:#323232;stroke-width:0.18704872;stroke-linecap:round;stroke-linejoin:round;stroke-miterlimit:4;stroke-opacity:1;stroke-dasharray:none"
                id="path3061-2-8"/>
        <path
                style="fill:none;stroke:#333333;stroke-width:0.11690545;stroke-linecap:round;stroke-linejoin:miter;stroke-miterlimit:4;stroke-opacity:1;stroke-dasharray:none"
                d="m 22.236468,3.0477765 c 0.871015,-0.3639313 3.74869,-0.3679539 4.498287,0.03533"
                id="path5665"
                inkscape:connector-curvature="0"
                sodipodi:nodetypes="cc"/>

        <path
                style="fill:none;stroke:#333333;stroke-width:0.2338109px;stroke-linecap:butt;stroke-linejoin:miter;stroke-opacity:1"
                d="m 21.94895,2.8296195 c 0.09133,-0.5875013 5.099814,-0.6684885 5.032008,0.051768"
                id="path5648"
                inkscape:connector-curvature="0"
                sodipodi:nodetypes="cc"/>
        <path
                style="fill:none;stroke:#000000;stroke-width:0.09352436;stroke-linecap:round;stroke-linejoin:miter;stroke-miterlimit:4;stroke-opacity:1;stroke-dasharray:none"
                d="m 21.973921,3.4873636 c 0.82907,0.3992929 3.754255,0.6480373 4.996165,0.00187"
                id="path5660"
                inkscape:connector-curvature="0"
                sodipodi:nodetypes="cc"/>
        <path
                sodipodi:type="arc"
                style="fill:#382e3f;fill-opacity:1;stroke:#161413;stroke-width:1.79949188;stroke-miterlimit:3.79999995;stroke-opacity:1;stroke-dasharray:none"
                id="path5020-3-5"
                sodipodi:cx="178.77306"
                sodipodi:cy="241.00398"
                sodipodi:rx="16.699469"
                sodipodi:ry="6.1715426"
                d="m 195.47252,241.00398 a 16.699469,6.1715426 0 1 1 -33.39893,0 16.699469,6.1715426 0 1 1 33.39893,0 z"
                transform="matrix(0.18051797,0,0,0.09352104,-7.8132912,-18.872199)"/>
        <path
                style="fill:#382e3f;fill-opacity:1;stroke:none"
                d="m 21.416368,1.4138312 0,2.2865889 c 1.916174,0.5499045 5.960845,0.1444764 6.0839,0 l -0.05001,-2.3348989 c -1.348434,0.6986528 -4.721788,0.6319606 -6.033888,0.04831 z"
                id="path5066"
                inkscape:connector-curvature="0"
                sodipodi:nodetypes="ccccc"/>
        <path
                sodipodi:type="arc"
                style="fill:#736c77;fill-opacity:1;stroke:#161413;stroke-width:1.78021789;stroke-miterlimit:3.79999995;stroke-opacity:1;stroke-dasharray:none"
                id="path5020-2"
                sodipodi:cx="178.77306"
                sodipodi:cy="241.00398"
                sodipodi:rx="16.699469"
                sodipodi:ry="6.1715426"
                d="m 195.47252,241.00398 a 16.699469,6.1715426 0 1 1 -33.39893,0 16.699469,6.1715426 0 1 1 33.39893,0 z"
                transform="matrix(0.18048547,0,0,0.09557425,-7.8074459,-21.853308)"/>
        <path
                style="fill:none;stroke:#161413;stroke-width:0.2338109;stroke-linecap:butt;stroke-linejoin:miter;stroke-miterlimit:3.79999995;stroke-opacity:1;stroke-dasharray:none"
                d="m 27.466623,1.1849135 c 0,0 0,2.513231 0,2.464423"
                id="path5052-6"
                inkscape:connector-curvature="0"
                sodipodi:nodetypes="cc"/>

        <path
                style="fill:none;stroke:#161413;stroke-width:0.2338109;stroke-linecap:butt;stroke-linejoin:miter;stroke-miterlimit:3.79999995;stroke-opacity:1;stroke-dasharray:none"
                d="m 21.447161,1.1727507 0,2.4684656"
                id="path5052-2-1"
                inkscape:connector-curvature="0"
                sodipodi:nodetypes="cc"/>
        <path
                style="fill:none;stroke:none"
                d="m 21.477369,1.8924838 c 0.926102,0.6673313 5.161984,0.642669 5.941065,-0.041609"
                id="path5393-1-2"
                inkscape:connector-curvature="0"
                sodipodi:nodetypes="cc"/>
        <path
                sodipodi:type="arc"
                style="fill:none;stroke:#323232;stroke-width:0.80000001;stroke-miterlimit:4;stroke-opacity:1;stroke-dasharray:none"
                id="path5060"
                sodipodi:cx="475.76111"
                sodipodi:cy="78.441093"
                sodipodi:rx="6.7548199"
                sodipodi:ry="6.5531831"
                d="m 482.51593,78.441093 a 6.7548199,6.5531831 0 1 1 -13.50964,0 6.7548199,6.5531831 0 1 1 13.50964,0 z"
                transform="matrix(0.2338109,0,0,0.2338109,-91.60961,-9.6088481)"/>
        <path
                style="fill:none;stroke:#1e1e1e;stroke-width:0.07014327;stroke-linecap:round;stroke-linejoin:miter;stroke-miterlimit:4;stroke-opacity:1;stroke-dasharray:none"
                d="m 19.45424,12.437972 c 0.134488,-0.279689 -0.128853,-0.823302 -0.350132,-0.939092 -0.559953,-0.292998 -0.305567,-1.071226 0.644009,-0.811144 0.2531,0.06093 0.930684,-0.203539 1.163911,-0.473654"
                id="path5070"
                inkscape:connector-curvature="0"
                sodipodi:nodetypes="cscc"/>
        <path
                style="fill:none;stroke:#1e1e1e;stroke-width:0.07014327;stroke-linecap:round;stroke-linejoin:miter;stroke-miterlimit:4;stroke-opacity:1;stroke-dasharray:none"
                d="M 21.3587,7.9970682 C 21.306794,7.7492217 21.016097,7.3771934 20.882591,7.3137231 19.834767,6.8155306 20.282211,5.8383787 21.556457,6.3718603 21.842946,6.491803 22.164342,5.8856062 22.288636,5.4487609"
                id="path5074"
                inkscape:connector-curvature="0"
                sodipodi:nodetypes="cscc"/>
        <path
                style="fill:none;stroke:#1e1e1e;stroke-width:0.07014327;stroke-linecap:round;stroke-linejoin:miter;stroke-miterlimit:4;stroke-opacity:1;stroke-dasharray:none"
                d="m 16.231882,10.780105 c -0.277651,0.277938 0.01216,0.723668 0.333063,0.656282 0.308631,-0.06481 0.180923,-0.487884 0.02993,-0.557324"
                id="path5100"
                inkscape:connector-curvature="0"
                sodipodi:nodetypes="csc"/>
        <path
                inkscape:connector-curvature="0"
                id="path6241"
                style="font-size:8px;font-style:normal;font-weight:bold;line-height:125%;letter-spacing:0px;word-spacing:0px;fill:none;stroke:none;font-family:Sans;-inkscape-font-specification:Sans Bold"
                d="m 13.880671,33.716626 0,-0.562464 -0.539236,0 0,-0.388265 0.539236,0 0,-0.562463 0.35949,0 0,0.562463 0.540638,0 0,0.388265 -0.540638,0 0,0.562464 z"/>
        <path
                inkscape:connector-curvature="0"
                id="path6243"
                style="font-size:8px;font-style:normal;font-weight:bold;line-height:125%;letter-spacing:0px;word-spacing:0px;fill:none;stroke:none;font-family:Sans;-inkscape-font-specification:Sans Bold"
                d="m 15.560175,33.716626 0,-0.562464 -0.539236,0 0,-0.388265 0.539236,0 0,-0.562463 0.359491,0 0,0.562463 0.540638,0 0,0.388265 -0.540638,0 0,0.562464 z"/>
        <path
                inkscape:connector-curvature="0"
                id="path6249"
                style="font-size:8px;font-style:normal;font-weight:bold;line-height:125%;letter-spacing:0px;word-spacing:0px;fill:none;stroke:none;font-family:Sans;-inkscape-font-specification:Sans Bold"
                d="m 20.598653,33.716626 0,-0.562464 -0.539236,0 0,-0.388265 0.539236,0 0,-0.562463 0.359491,0 0,0.562463 0.540638,0 0,0.388265 -0.540638,0 0,0.562464 z"/>
        <path
                inkscape:connector-curvature="0"
                id="path6251"
                style="font-size:8px;font-style:normal;font-weight:bold;line-height:125%;letter-spacing:0px;word-spacing:0px;fill:none;stroke:none;font-family:Sans;-inkscape-font-specification:Sans Bold"
                d="m 22.278158,33.716626 0,-0.562464 -0.539237,0 0,-0.388265 0.539237,0 0,-0.562463 0.35949,0 0,0.562463 0.540638,0 0,0.388265 -0.540638,0 0,0.562464 z"/>
    </g>
</svg>
