<?xml version="1.0" encoding="iso-8859-1"?>
<!-- Generator: Adobe Illustrator 16.0.0, SVG Export Plug-In . SVG Version: 6.00 Build 0)  -->
<!DOCTYPE svg PUBLIC "-//W3C//DTD SVG 1.1//EN" "http://www.w3.org/Graphics/SVG/1.1/DTD/svg11.dtd">
<svg version="1.1" id="Capa_1" xmlns="http://www.w3.org/2000/svg" xmlns:xlink="http://www.w3.org/1999/xlink" x="0px" y="0px"
	 width="453.2px" height="453.2px" viewBox="0 0 453.2 453.2" style="enable-background:new 0 0 453.2 453.2;" xml:space="preserve"
	>
<g>
	<g>
		<path d="M444.253,357.348l-3.048-5.395c-11.455-20.388-38.23-68.089-65.894-108.795c-9.295-13.645-18.637-26.378-27.114-37.916
			c-13.533-18.45-30.372-41.383-30.535-48.191c1.016-29.917,0.314-100.68,0.081-122.563h17.668V3.485H112.034v31.002h23.424
			c-0.263,21.872-0.946,92.623,0.082,122.517c-0.181,6.843-17.014,29.788-30.565,48.238c-8.443,11.549-17.791,24.283-27.091,37.916
			c-27.657,40.707-54.444,88.408-65.899,108.795l-3.048,5.395c-11.794,20.809-11.911,49.196-0.374,69.035
			c8.77,15.041,22.84,23.332,39.58,23.332l0,0H405.03h0.035c16.722,0,30.793-8.291,39.562-23.332
			C456.176,406.544,456.059,378.156,444.253,357.348z M422.441,413.457c-4.087,7.041-9.938,10.603-17.411,10.603H48.143
			c-7.427,0-13.283-3.55-17.387-10.603c-6.959-11.934-6.744-30.629,0.531-43.451l3.071-5.512
			c11.274-20.061,37.688-67.096,64.785-106.88c9.073-13.405,18.233-25.876,26.56-37.198c23.646-32.252,35.977-49.744,35.498-64.235
			c-0.934-26.63-0.432-88.53-0.146-115.271h131.117c0.257,26.74,0.782,88.641-0.129,115.271
			c-0.514,14.491,11.817,31.972,35.487,64.235c8.29,11.321,17.469,23.804,26.564,37.198c27.057,39.784,53.47,86.819,64.762,106.88
			l3.06,5.512C429.202,382.828,429.413,401.534,422.441,413.457z"/>
		<path d="M405.416,360.162c-6.737-11.957-22.479-40.018-38.756-63.932c-4.157-6.154-8.279-11.829-12.249-17.271
			c0,0-20.634,8.536-84.204,10.661c-63.582,2.148-74.308,18.193-110.092,14.993c-35.79-3.223-61.293-25.654-61.293-25.654
			c-3.959,5.441-8.086,11.116-12.25,17.271c-16.26,23.914-32.042,51.975-38.75,63.932l-1.781,3.188
			c-6.924,12.238-7.006,28.913-0.216,40.59c5.179,8.828,13.417,13.697,23.255,13.697h22.385h82.913h104.492h83.433h21.872
			c9.832,0,18.1-4.869,23.272-13.697c6.749-11.677,6.702-28.352-0.234-40.59L405.416,360.162z M112.788,364.027
			c-11.729,0-21.276-9.505-21.276-21.252c0-11.748,9.546-21.252,21.276-21.252s21.246,9.504,21.246,21.252
			C134.034,354.499,124.517,364.027,112.788,364.027z M136.416,400.46c-4.198,0-7.608-3.397-7.608-7.613
			c0-4.192,3.41-7.591,7.608-7.591c4.18,0,7.602,3.398,7.602,7.591C144.018,397.062,140.596,400.46,136.416,400.46z
			 M203.314,352.443c-7.088,0-12.804-5.744-12.804-12.844c0-7.054,5.728-12.822,12.804-12.822c7.065,0,12.822,5.769,12.822,12.822
			C216.136,346.688,210.379,352.443,203.314,352.443z M254.839,395.299c-5.547,0-10.03-4.508-10.03-10.043
			c0-5.546,4.483-10.029,10.03-10.029s10.065,4.483,10.065,10.029C264.893,390.791,260.375,395.299,254.839,395.299z
			 M319.368,376.113c-12.635,0-22.888-10.264-22.888-22.922c0-12.635,10.253-22.91,22.888-22.91
			c12.704,0,22.934,10.275,22.934,22.91C342.301,365.85,332.072,376.113,319.368,376.113z M343.025,400.46
			c-4.192,0-7.602-3.397-7.602-7.613c0-4.192,3.409-7.591,7.602-7.591c4.204,0,7.602,3.398,7.602,7.591
			C350.615,397.062,347.217,400.46,343.025,400.46z"/>
	</g>
</g>
<g>
</g>
<g>
</g>
<g>
</g>
<g>
</g>
<g>
</g>
<g>
</g>
<g>
</g>
<g>
</g>
<g>
</g>
<g>
</g>
<g>
</g>
<g>
</g>
<g>
</g>
<g>
</g>
<g>
</g>
</svg>
