<?xml version="1.0" encoding="UTF-8" standalone="no"?>
<svg
   xmlns:dc="http://purl.org/dc/elements/1.1/"
   xmlns:cc="http://creativecommons.org/ns#"
   xmlns:rdf="http://www.w3.org/1999/02/22-rdf-syntax-ns#"
   xmlns:svg="http://www.w3.org/2000/svg"
   xmlns="http://www.w3.org/2000/svg"
   version="1.1"
   id="svg5120"
   height="48px"
   width="48px">
  <defs
     id="defs5122" />
  <metadata
     id="metadata5125">
    <rdf:RDF>
      <cc:Work
         rdf:about="">
        <dc:format>image/svg+xml</dc:format>
        <dc:type
           rdf:resource="http://purl.org/dc/dcmitype/StillImage" />
        <dc:title></dc:title>
      </cc:Work>
    </rdf:RDF>
  </metadata>
  <g
     id="layer1">
    <path
       d="m 50.868613,-7.911995 c -6.91809,-0.740376 -12.316948,-0.08347 -14.729432,1.729946"
       style="fill:none;stroke:#1e1e1e;stroke-width:0.11690545;stroke-linecap:round;stroke-linejoin:round;stroke-miterlimit:4;stroke-opacity:1;stroke-dasharray:none"
       id="path3025-8-3" />
    <path
       d="M 57.604635,-6.284337 C 56.840892,-6.827042 56.013622,-7.113038 54.603578,-7.317136"
       style="fill:none;stroke:#1e1e1e;stroke-width:0.11690545;stroke-linecap:round;stroke-linejoin:round;stroke-miterlimit:4;stroke-opacity:1;stroke-dasharray:none"
       id="path3027-2-3" />
    <path
       id="path3037-7-5"
       style="fill:none;stroke:#1e1e1e;stroke-width:0.11690545;stroke-linecap:round;stroke-linejoin:round;stroke-miterlimit:4;stroke-opacity:1;stroke-dasharray:none"
       d="m 57.939803,-5.66203 c -0.958181,3.431179 -19.61788,3.88102 -21.852692,0.229621" />
    <path
       transform="matrix(0.22802986,0,0,0.2338109,-37.385703,-58.735472)"
       d="m 424.61336,173.86267 a 54.041702,6.2355809 0 1 1 -108.08341,0 54.041702,6.2355809 0 1 1 108.08341,0 z"
       id="path5330"
       style="opacity:0;fill:#c0c5da;fill-opacity:0.65608467;stroke:none" />
    <path
       id="path5347"
       d="m 35.064984,-27.411268 c 0.0037,-1.078744 11.701814,-0.930987 13.843826,-0.943627 l -0.082,7.767522 -13.733071,0.993933"
       style="fill:#e9e9e9;fill-opacity:1;stroke:#161413;stroke-width:0.14028655;stroke-linecap:butt;stroke-linejoin:miter;stroke-miterlimit:4;stroke-opacity:1;stroke-dasharray:none" />
    <path
       id="path5078"
       d="m 45.443312,-6.123524 c -1.72805,0.616992 5.423033,0.531345 3.000261,0"
       style="fill:none;stroke:#1e1e1e;stroke-width:0.11690545;stroke-linecap:round;stroke-linejoin:miter;stroke-miterlimit:4;stroke-opacity:1;stroke-dasharray:none" />
    <path
       id="path5372"
       d="m 35.015883,-27.214902 c 1.724426,1.779463 11.98475,1.654378 16.83843,1.374565 l -0.02843,15.55294 c -1.119885,0.310971 -13.335593,1.411388 -16.889589,-1.485178 -0.111504,-6.055689 -0.297103,-14.146694 0.07959,-15.442327 z"
       style="fill:#f7fafa;fill-opacity:1;stroke:none" />
    <path
       id="path5387-3"
       d="m 34.843214,-13.07103 c 1.494168,0.966953 6.151401,2.168687 14.617039,1.58929"
       style="fill:none;stroke:#46443a;stroke-width:0.20037594;stroke-linecap:round;stroke-linejoin:miter;stroke-miterlimit:4;stroke-opacity:1;stroke-dasharray:none" />
    <path
       id="path5379-48-9"
       d="m 34.735217,-18.105982 c 2.467406,1.080192 5.298178,1.289348 6.742171,1.215742"
       style="fill:none;stroke:#46443a;stroke-width:0.69455147;stroke-linecap:butt;stroke-linejoin:miter;stroke-miterlimit:4;stroke-opacity:1;stroke-dasharray:none" />
    <path
       id="path5379-48"
       d="m 34.715109,-19.28025 c 1.927186,1.05277 5.771762,1.293846 7.785786,1.26559"
       style="fill:none;stroke:#46443a;stroke-width:0.20037594;stroke-linecap:round;stroke-linejoin:miter;stroke-miterlimit:4;stroke-opacity:1;stroke-dasharray:none" />
    <path
       id="path5379"
       d="m 34.747749,-20.787536 c 1.927186,1.052771 5.771762,1.293847 7.785763,1.26559"
       style="fill:none;stroke:#46443a;stroke-width:0.20037594;stroke-linecap:round;stroke-linejoin:miter;stroke-miterlimit:4;stroke-opacity:1;stroke-dasharray:none" />
    <path
       id="rect5374"
       d="m 43.533287,-22.30574 6.08736,0 0,7.015271 c -1.865647,0.311572 -4.09466,0.218861 -6.170223,0.155272 z"
       style="fill:#fa9d00;fill-opacity:1;stroke:none" />
    <path
       id="path5391"
       d="m 46.813397,-16.332309 c -0.113211,0.04715 -0.08057,-1.057078 -0.311062,-1.064644 -0.24487,-0.008 -0.172529,1.198926 -0.409333,1.189939 -1.235223,-0.04687 -1.538967,-1.198618 -1.461973,-1.450696 0.356445,0.543378 0.402412,-1.84023 0.504915,-1.160911 0.16175,1.072091 0.531335,-1.502848 0.650111,-1.187023 0.35427,0.941966 0.749528,-0.336428 0.738258,-1.042151 -0.0098,-0.616525 0.653244,2.747395 1.10174,1.114882 0.157893,-0.574697 0.0246,1.754676 0.398367,0.959701 0.307391,-0.65381 0.03173,1.255943 0.421819,1.007998 -0.114311,1.753364 -1.670392,2.105696 -1.667423,1.568626"
       style="opacity:0.80088495;fill:#000000;fill-opacity:1;stroke:none" />
    <path
       id="rect5369"
       d="m 34.837462,-25.403178 c 3.829332,2.035123 11.800436,1.644843 16.99202,1.302972 l 0,1.942697 c -5.14094,0.211464 -13.39353,0.635024 -17.061438,-1.214956 z"
       style="fill:#ff1810;fill-opacity:1;stroke:none" />
    <path
       id="path5379-4"
       d="m 34.727384,-19.783442 c 1.927186,1.052771 5.771762,1.293846 7.785786,1.26559"
       style="fill:none;stroke:#46443a;stroke-width:0.20037594;stroke-linecap:round;stroke-linejoin:miter;stroke-miterlimit:4;stroke-opacity:1;stroke-dasharray:none" />
    <path
       id="path5379-9"
       d="m 34.739659,-20.286629 c 1.927186,1.052771 5.771762,1.293847 7.785786,1.265591"
       style="fill:none;stroke:#46443a;stroke-width:0.20037594;stroke-linecap:round;stroke-linejoin:miter;stroke-miterlimit:4;stroke-opacity:1;stroke-dasharray:none" />
    <path
       id="path5379-2"
       d="m 34.702834,-21.329827 c 1.927186,1.05277 5.771762,1.293846 7.785786,1.26559"
       style="fill:none;stroke:#46443a;stroke-width:0.20037594;stroke-linecap:round;stroke-linejoin:miter;stroke-miterlimit:4;stroke-opacity:1;stroke-dasharray:none" />
    <path
       id="path5379-2-7"
       d="m 34.73683,-21.884941 c 1.275649,0.724042 3.38647,1.092261 4.968669,1.173024"
       style="fill:none;stroke:#46443a;stroke-width:0.17016231;stroke-linecap:round;stroke-linejoin:miter;stroke-miterlimit:4;stroke-opacity:1;stroke-dasharray:none" />
    <path
       id="path5379-2-7-2"
       d="m 34.749105,-22.325663 c 1.263374,0.711767 3.38647,1.092259 4.968669,1.173022"
       style="fill:none;stroke:#46443a;stroke-width:0.17016231;stroke-linecap:round;stroke-linejoin:miter;stroke-miterlimit:4;stroke-opacity:1;stroke-dasharray:none" />
    <path
       id="path5387"
       d="m 34.872861,-15.47105 c 1.494169,0.966953 6.151401,2.168687 14.617039,1.58929"
       style="fill:none;stroke:#46443a;stroke-width:0.20037594;stroke-linecap:round;stroke-linejoin:miter;stroke-miterlimit:4;stroke-opacity:1;stroke-dasharray:none" />
    <path
       id="path5387-7"
       d="m 34.843214,-13.539657 c 1.494168,0.966953 6.151401,2.168687 14.617039,1.589289"
       style="fill:none;stroke:#46443a;stroke-width:0.20037594;stroke-linecap:round;stroke-linejoin:miter;stroke-miterlimit:4;stroke-opacity:1;stroke-dasharray:none" />
    <path
       id="path5387-4"
       d="m 34.843214,-14.042999 c 1.494168,0.966953 6.151401,2.168688 14.617039,1.58929"
       style="fill:none;stroke:#46443a;stroke-width:0.20037594;stroke-linecap:round;stroke-linejoin:miter;stroke-miterlimit:4;stroke-opacity:1;stroke-dasharray:none" />
    <path
       id="path5387-5"
       d="m 34.877935,-14.997604 c 1.494168,0.966953 6.151401,2.168687 14.617039,1.58929"
       style="fill:none;stroke:#46443a;stroke-width:0.20037594;stroke-linecap:round;stroke-linejoin:miter;stroke-miterlimit:4;stroke-opacity:1;stroke-dasharray:none" />
    <path
       id="path5387-8"
       d="m 34.860586,-14.511621 c 1.494145,0.966953 6.151401,2.168687 14.617039,1.58929"
       style="fill:none;stroke:#46443a;stroke-width:0.20037594;stroke-linecap:round;stroke-linejoin:miter;stroke-miterlimit:4;stroke-opacity:1;stroke-dasharray:none" />
    <path
       id="path5379-48-9-5"
       d="m 34.764443,-17.000987 c 2.467406,1.080192 5.298178,1.289348 6.742171,1.215742"
       style="fill:none;stroke:#46443a;stroke-width:0.69455147;stroke-linecap:butt;stroke-linejoin:miter;stroke-miterlimit:4;stroke-opacity:1;stroke-dasharray:none" />
    <path
       transform="matrix(1.235547,0,0,1.4728611,-7.2477263,-11.066117)"
       d="m 36.79528,19.152676 a 11.357388,1.527602 0 1 1 -22.714775,0 11.357388,1.527602 0 1 1 22.714775,0 z"
       id="path10583"
       style="fill:#eff5f5;fill-opacity:1;stroke:none" />
    <path
       id="path3061-2-8"
       style="fill:none;stroke:#323232;stroke-width:0.18704872;stroke-linecap:round;stroke-linejoin:round;stroke-miterlimit:4;stroke-opacity:1;stroke-dasharray:none"
       d="m 28.922937,-33.566775 c -0.185622,1.943623 0.05541,5.563156 -12.341591,5.569502 -12.4287088,0.0064 -11.8383838,-3.586163 -11.8800718,-5.38412 0,0 -0.354037,-12.095412 -0.354037,-14.608741 0.0512,-6.621471 1.337656,-9.915592 2.790978,-11.703982 1.803243,-2.218997 3.8633738,-2.119876 4.1395978,-3.182323 0.234793,-0.90312 -1.154909,-1.313253 -1.6948708,-1.002965 -0.927037,0.815984 -2.515759,-0.310998 -0.927739,-1.616131 0.249453,-0.200745 0.218988,-0.564483 0.144893,-0.972826 -0.255836,-1.749584 1.2234388,-4.295972 4.7551758,-3.032998 0.694933,0.254164 0.641367,-2.150221 0.610971,-3.075838 0.07005,0.752665 5.133178,0.675676 5.096797,0.01791 -0.03058,3.561969 1.192085,8.844935 1.841448,9.511191 1.886386,2.312474 7.64073,0.260949 7.903861,14.823363 0.05878,7.775494 -0.08597,12.270012 -0.08541,14.657949 z" />
    <path
       id="path5343"
       d="m 35.017707,-27.407901 c -0.06493,1.258569 7.380218,2.212487 16.853674,1.547709 l -0.06942,15.600703 c -2.641947,0.669167 -14.242007,0.814721 -16.939951,-1.562089"
       style="fill:none;stroke:#161413;stroke-width:0.14028655;stroke-linecap:butt;stroke-linejoin:miter;stroke-miterlimit:4;stroke-opacity:1;stroke-dasharray:none" />
    <path
       id="path5665"
       d="m 44.779307,-46.546469 c 0.871015,-0.363932 3.74869,-0.367954 4.498287,0.03533"
       style="fill:none;stroke:#333333;stroke-width:0.11690545;stroke-linecap:round;stroke-linejoin:miter;stroke-miterlimit:4;stroke-opacity:1;stroke-dasharray:none" />
    <path
       id="path5648"
       d="m 44.491789,-46.764626 c 0.09133,-0.587502 5.099814,-0.668489 5.032008,0.05177"
       style="fill:none;stroke:#333333;stroke-width:0.2338109px;stroke-linecap:butt;stroke-linejoin:miter;stroke-opacity:1" />
    <path
       id="path5660"
       d="m 44.51676,-46.106882 c 0.82907,0.399293 3.754255,0.648037 4.996165,0.0019"
       style="fill:none;stroke:#000000;stroke-width:0.09352436;stroke-linecap:round;stroke-linejoin:miter;stroke-miterlimit:4;stroke-opacity:1;stroke-dasharray:none" />
    <path
       transform="matrix(0.18051797,0,0,0.09352104,14.729548,-68.466445)"
       d="m 195.47252,241.00398 a 16.699469,6.1715426 0 1 1 -33.39893,0 16.699469,6.1715426 0 1 1 33.39893,0 z"
       id="path5020-3-5"
       style="fill:#382e3f;fill-opacity:1;stroke:#161413;stroke-width:1.79949188;stroke-miterlimit:3.79999995;stroke-opacity:1;stroke-dasharray:none" />
    <path
       id="path5066"
       d="m 43.959207,-48.180415 0,2.286589 c 1.916174,0.549905 5.960845,0.144477 6.0839,0 l -0.05001,-2.334899 c -1.348434,0.698653 -4.721788,0.631961 -6.033888,0.04831 z"
       style="fill:#382e3f;fill-opacity:1;stroke:none" />
    <path
       transform="matrix(0.18048547,0,0,0.09557425,14.735393,-71.447554)"
       d="m 195.47252,241.00398 a 16.699469,6.1715426 0 1 1 -33.39893,0 16.699469,6.1715426 0 1 1 33.39893,0 z"
       id="path5020-2"
       style="fill:#736c77;fill-opacity:1;stroke:#161413;stroke-width:1.78021789;stroke-miterlimit:3.79999995;stroke-opacity:1;stroke-dasharray:none" />
    <path
       id="path5052-6"
       d="m 50.009462,-48.409332 c 0,0 0,2.513231 0,2.464422"
       style="fill:none;stroke:#161413;stroke-width:0.2338109;stroke-linecap:butt;stroke-linejoin:miter;stroke-miterlimit:3.79999995;stroke-opacity:1;stroke-dasharray:none" />
    <path
       id="path5052-2-1"
       d="m 43.99,-48.421495 0,2.468465"
       style="fill:none;stroke:#161413;stroke-width:0.2338109;stroke-linecap:butt;stroke-linejoin:miter;stroke-miterlimit:3.79999995;stroke-opacity:1;stroke-dasharray:none" />
    <path
       id="path5393-1-2"
       d="m 44.020208,-47.701762 c 0.926102,0.667331 5.161984,0.642669 5.941065,-0.04161"
       style="fill:none;stroke:none" />
    <path
       transform="matrix(0.2338109,0,0,0.2338109,-69.066771,-59.203094)"
       d="m 482.51593,78.441093 a 6.7548199,6.5531831 0 1 1 -13.50964,0 6.7548199,6.5531831 0 1 1 13.50964,0 z"
       id="path5060"
       style="fill:none;stroke:#323232;stroke-width:0.80000001;stroke-miterlimit:4;stroke-opacity:1;stroke-dasharray:none" />
    <path
       id="path5070"
       d="m 41.997079,-37.156274 c 0.134488,-0.279689 -0.128853,-0.823302 -0.350132,-0.939092 -0.559953,-0.292998 -0.305567,-1.071226 0.644009,-0.811144 0.2531,0.06093 0.930684,-0.203539 1.163911,-0.473654"
       style="fill:none;stroke:#1e1e1e;stroke-width:0.07014327;stroke-linecap:round;stroke-linejoin:miter;stroke-miterlimit:4;stroke-opacity:1;stroke-dasharray:none" />
    <path
       id="path5074"
       d="m 43.901539,-41.597178 c -0.05191,-0.247846 -0.342603,-0.619875 -0.476109,-0.683345 -1.047824,-0.498192 -0.60038,-1.475344 0.673866,-0.941863 0.286489,0.119943 0.607885,-0.486254 0.732179,-0.923099"
       style="fill:none;stroke:#1e1e1e;stroke-width:0.07014327;stroke-linecap:round;stroke-linejoin:miter;stroke-miterlimit:4;stroke-opacity:1;stroke-dasharray:none" />
    <path
       id="path5100"
       d="m 38.774721,-38.814141 c -0.277651,0.277938 0.01216,0.723668 0.333063,0.656282 0.308631,-0.06481 0.180923,-0.487884 0.02993,-0.557324"
       style="fill:none;stroke:#1e1e1e;stroke-width:0.07014327;stroke-linecap:round;stroke-linejoin:miter;stroke-miterlimit:4;stroke-opacity:1;stroke-dasharray:none" />
    <rect
       y="-17.636889"
       x="38.441505"
       height="2.9150305"
       width="4.6528368"
       id="rect5648"
       style="fill:#f7fafa;fill-opacity:1;stroke:none" />
    <path
       d="m 36.42351,-15.87762 0,-0.562464 -0.539236,0 0,-0.388265 0.539236,0 0,-0.562463 0.35949,0 0,0.562463 0.540638,0 0,0.388265 -0.540638,0 0,0.562464 z"
       style="font-size:8px;font-style:normal;font-weight:bold;line-height:125%;letter-spacing:0px;word-spacing:0px;fill:none;stroke:none;font-family:Sans;-inkscape-font-specification:Sans Bold"
       id="path6241" />
    <path
       d="m 38.103014,-15.87762 0,-0.562464 -0.539236,0 0,-0.388265 0.539236,0 0,-0.562463 0.359491,0 0,0.562463 0.540638,0 0,0.388265 -0.540638,0 0,0.562464 z"
       style="font-size:8px;font-style:normal;font-weight:bold;line-height:125%;letter-spacing:0px;word-spacing:0px;fill:none;stroke:none;font-family:Sans;-inkscape-font-specification:Sans Bold"
       id="path6243" />
    <path
       d="m 40.422329,-15.667802 -0.02864,0.38425 -1.379274,-0.103703 c 0.02585,-0.144139 0.08098,-0.278402 0.165449,-0.402826 0.0845,-0.124419 0.244959,-0.285816 0.481385,-0.484185 0.19044,-0.160374 0.308065,-0.269964 0.352878,-0.328771 0.06055,-0.08131 0.09398,-0.163682 0.100255,-0.247101 0.0085,-0.09215 -0.01151,-0.164959 -0.05474,-0.21804 -0.04337,-0.05311 -0.106694,-0.08278 -0.189729,-0.08903 -0.08219,-0.0059 -0.149462,0.01487 -0.201886,0.06328 -0.05249,0.04836 -0.08693,0.13263 -0.103535,0.252776 l -0.389008,-0.07072 c 0.04033,-0.225951 0.126049,-0.383825 0.256759,-0.473678 0.130634,-0.08986 0.288415,-0.127841 0.473233,-0.113945 0.202542,0.01532 0.357422,0.08464 0.464561,0.208141 0.107135,0.123532 0.154251,0.270683 0.141454,0.441448 -0.009,0.09705 -0.03092,0.188404 -0.07052,0.273767 -0.03927,0.08539 -0.09915,0.173405 -0.178313,0.264175 -0.05237,0.06022 -0.145154,0.145527 -0.278311,0.255923 -0.133158,0.110394 -0.217839,0.183969 -0.253897,0.220744 -0.03588,0.03679 -0.06582,0.07301 -0.08917,0.108767 z"
       id="path6245"
       style="font-size:8px;font-style:normal;font-weight:bold;line-height:125%;letter-spacing:0px;word-spacing:0px;fill:#ffffff;fill-opacity:1;stroke:#333333;stroke-width:0.117;stroke-miterlimit:4;stroke-opacity:1;stroke-dasharray:none;font-family:Sans;-inkscape-font-specification:Sans Bold" />
    <path
       d="m 40.898672,-15.197035 0.05246,-2.145875 0.415523,0.0101 -0.04359,1.781339 1.0332,0.02524 -0.0087,0.364544 z"
       id="path6247"
       style="font-size:8px;font-style:normal;font-weight:bold;line-height:125%;letter-spacing:0px;word-spacing:0px;fill:#ffffff;fill-opacity:1;stroke:#333333;stroke-width:0.11690546;stroke-miterlimit:4;stroke-opacity:1;stroke-dasharray:none;font-family:Sans;-inkscape-font-specification:Sans Bold" />
    <path
       d="m 43.141492,-15.87762 0,-0.562464 -0.539236,0 0,-0.388265 0.539236,0 0,-0.562463 0.359491,0 0,0.562463 0.540638,0 0,0.388265 -0.540638,0 0,0.562464 z"
       style="font-size:8px;font-style:normal;font-weight:bold;line-height:125%;letter-spacing:0px;word-spacing:0px;fill:none;stroke:none;font-family:Sans;-inkscape-font-specification:Sans Bold"
       id="path6249" />
    <path
       d="m 44.820997,-15.87762 0,-0.562464 -0.539237,0 0,-0.388265 0.539237,0 0,-0.562463 0.35949,0 0,0.562463 0.540638,0 0,0.388265 -0.540638,0 0,0.562464 z"
       style="font-size:8px;font-style:normal;font-weight:bold;line-height:125%;letter-spacing:0px;word-spacing:0px;fill:none;stroke:none;font-family:Sans;-inkscape-font-specification:Sans Bold"
       id="path6251" />
    <path
       d="m 29.05118,38.323128 c -1.519797,-0.169999 -3.162594,-0.263541 -4.878215,-0.263541 -5.729306,0 -10.65701,1.03595 -12.843554,2.521503"
       style="fill:none;stroke:#1e1e1e;stroke-width:0.10141162;stroke-linecap:round;stroke-linejoin:round;stroke-miterlimit:4;stroke-opacity:1;stroke-dasharray:none"
       id="path3025-8" />
    <path
       d="M 37.016525,40.58109 C 36.262846,40.06906 35.183297,39.610516 33.85765,39.229236"
       style="fill:#fbfbfb;fill-opacity:1;stroke:#1e1e1e;stroke-width:0.10141162;stroke-linecap:round;stroke-linejoin:round;stroke-miterlimit:4;stroke-opacity:1;stroke-dasharray:none"
       id="path3027-2" />
    <path
       id="path3037-7"
       style="fill:none;stroke:#1e1e1e;stroke-width:0.10141162;stroke-linecap:round;stroke-linejoin:round;stroke-miterlimit:4;stroke-opacity:1;stroke-dasharray:none"
       d="M 31.623199,46.074778 C 27.716925,46.795849 11.046756,47.660596 10.617856,41.667936" />
    <path
       id="rect10514"
       d="m 11.522799,16.831599 26.766943,0.171737 c 0.02362,23.983107 0.164293,1.596545 0.02059,23.668937 -0.005,0.771703 -0.01017,1.597751 -0.203285,2.482026 -1.277361,5.362322 -27.429762,5.925943 -27.877657,-0.734409 0.05835,-25.263726 -0.105516,0.0044 -0.02158,-25.275196 z"
       style="opacity:0.80100002000000003;fill:#eff5f5;fill-opacity:0.59615386;stroke:none" />
    <path
       d="m 29.932106,37.074722 c 0.65976,-0.03761 1.273732,-0.0989 1.82967,-0.181677"
       style="fill:#1a1a1a;fill-opacity:1;stroke:#1a1a1a;stroke-width:0.16225858;stroke-linecap:round;stroke-linejoin:round;stroke-miterlimit:4;stroke-opacity:1;stroke-dasharray:none"
       id="path3051" />
    <path
       d="m 29.9367,32.664656 c 0.65976,-0.03761 1.273734,-0.0989 1.829672,-0.181675"
       style="fill:#1a1a1a;fill-opacity:1;stroke:#1a1a1a;stroke-width:0.10141162;stroke-linecap:round;stroke-linejoin:round;stroke-miterlimit:4;stroke-opacity:1;stroke-dasharray:none"
       id="path3053" />
    <path
       d="m 29.848443,41.435478 c 0.65976,-0.03761 1.273734,-0.0989 1.829673,-0.181674"
       style="fill:#1a1a1a;fill-opacity:1;stroke:#1a1a1a;stroke-width:0.10141162;stroke-linecap:round;stroke-linejoin:round;stroke-miterlimit:4;stroke-opacity:1;stroke-dasharray:none"
       id="path3051-5" />
    <path
       d="m 29.900664,28.258053 c 0.65976,-0.03761 1.273732,-0.0989 1.829671,-0.181675"
       style="fill:#1a1a1a;fill-opacity:1;stroke:#1a1a1a;stroke-width:0.16225858;stroke-linecap:round;stroke-linejoin:round;stroke-miterlimit:4;stroke-opacity:1;stroke-dasharray:none"
       id="path3051-54" />
    <path
       d="m 29.941113,23.847991 c 0.65976,-0.03761 1.273734,-0.09891 1.829671,-0.181681"
       style="fill:#1a1a1a;fill-opacity:1;stroke:#1a1a1a;stroke-width:0.10141162;stroke-linecap:round;stroke-linejoin:round;stroke-miterlimit:4;stroke-opacity:1;stroke-dasharray:none"
       id="path3053-1" />
    <path
       d="m 29.867779,19.399012 c 0.659759,-0.03761 1.273733,-0.0989 1.829672,-0.181679"
       style="fill:#1a1a1a;fill-opacity:1;stroke:#1a1a1a;stroke-width:0.16225858;stroke-linecap:round;stroke-linejoin:round;stroke-miterlimit:4;stroke-opacity:1;stroke-dasharray:none"
       id="path3053-1-0" />
    <path
       id="path5664"
       d="m 35.833025,42.109407 -1.931516,-0.720361 1.416971,-1.2e-5"
       style="fill:#fbfbfb;fill-opacity:1;stroke:#000000;stroke-width:0.14197625;stroke-linecap:butt;stroke-linejoin:miter;stroke-miterlimit:4;stroke-opacity:1;stroke-dasharray:none" />
    <path
       id="path3061-2"
       style="fill:none;stroke:#323232;stroke-width:0.16225858;stroke-linecap:round;stroke-linejoin:round;stroke-miterlimit:4;stroke-opacity:1;stroke-dasharray:none"
       d="m 31.718956,10.070981 c 3.282889,0.766552 6.59971,3.188377 6.579245,6.642461 0,21.648995 0.02048,21.639888 0.02048,25.181129 0,1.997677 -1.945811,5.299199 -14.179372,5.299199 -12.233466,0 -14.049636,-3.348918 -14.049636,-5.346696 0,0 0.0715,-22.7475 0.0715,-25.11878 0.170901,-3.961537 2.985459,-5.66482 6.499787,-6.665874 4.064626,-0.9504524 4.937784,-0.6613725 4.955047,-4.0986096 1.804767,1.0328833 3.417944,1.2022732 5.628346,0 -0.03018,3.3606511 2.156344,3.4820043 4.474619,4.1071706 z" />
    <path
       transform="matrix(0.20317294,0,0,0.1662747,-11.92268,-34.131094)"
       d="m 195.47252,241.00398 a 16.699469,6.1715426 0 1 1 -33.39893,0 16.699469,6.1715426 0 1 1 33.39893,0 z"
       id="path5020-3"
       style="fill:#f6f5f4;fill-opacity:1;stroke:#161413;stroke-width:1.10349834;stroke-miterlimit:3.79999995;stroke-opacity:1;stroke-dasharray:none" />
    <rect
       y="1.6058722"
       x="20.972288"
       height="4.3554883"
       width="6.8889775"
       id="rect6595"
       style="fill:#f6f5f4;fill-opacity:1;stroke:none" />
    <path
       transform="matrix(0.20313637,0,0,0.16992519,-11.916139,-39.431324)"
       d="m 195.47252,241.00398 a 16.699469,6.1715426 0 1 1 -33.39893,0 16.699469,6.1715426 0 1 1 33.39893,0 z"
       id="path5020"
       style="fill:#fbfbfb;fill-opacity:1;stroke:#1e1e1e;stroke-width:1.09167898;stroke-miterlimit:3.79999995;stroke-opacity:1;stroke-dasharray:none" />
    <path
       id="path5052"
       d="m 27.784822,1.5339725 c 0,0 0,4.6780752 0,4.5872267"
       style="fill:none;stroke:#1e1e1e;stroke-width:0.20752798;stroke-linecap:butt;stroke-linejoin:miter;stroke-miterlimit:3.79999995;stroke-opacity:1;stroke-dasharray:none" />
    <path
       id="path5052-2"
       d="m 21.009926,1.5095384 0,4.4617399"
       style="fill:none;stroke:#1e1e1e;stroke-width:0.20450214;stroke-linecap:butt;stroke-linejoin:miter;stroke-miterlimit:3.79999995;stroke-opacity:1;stroke-dasharray:none" />
    <path
       id="path5393"
       d="m 22.983256,6.4670229 c 2.250373,0.2209556 3.456394,0.00608 4.463874,-0.5378182"
       style="fill:none;stroke:#323232;stroke-width:0.10141162;stroke-linecap:round;stroke-linejoin:miter;stroke-miterlimit:4;stroke-opacity:1;stroke-dasharray:none" />
    <path
       id="path5395"
       d="m 21.369806,5.9471322 c 0.298385,0.239948 0.784999,0.3762432 1.039777,0.430255"
       style="fill:none;stroke:#323232;stroke-width:0.10141162;stroke-linecap:round;stroke-linejoin:miter;stroke-miterlimit:4;stroke-opacity:1;stroke-dasharray:none" />
    <path
       id="path5393-1"
       d="m 21.323408,2.3694765 c 0.961958,0.8075062 5.431016,0.8865444 6.24025,-0.014847"
       style="fill:none;stroke:#323232;stroke-width:0.10141162;stroke-linecap:round;stroke-linejoin:miter;stroke-miterlimit:4;stroke-opacity:1;stroke-dasharray:none" />
    <path
       transform="matrix(0.21475398,0,0,0.21356883,-15.246349,-49.666977)"
       d="m 226.53933,436.64551 a 6.7617087,6.6733203 0 1 1 -13.52342,0 6.7617087,6.6733203 0 1 1 13.52342,0 z"
       id="path5437"
       style="fill:#fbfbfb;fill-opacity:1;stroke:#323232;stroke-width:0.94706142;stroke-miterlimit:4;stroke-opacity:1;stroke-dasharray:none" />
    <path
       id="path5439"
       d="m 33.977549,45.316872 -2.025774,-0.788798 c -0.492733,-0.651356 -0.300497,-1.464055 0.663305,-1.523813 l 0.968069,0.179272"
       style="fill:#fbfbfb;fill-opacity:1;stroke:#323232;stroke-width:0.20282324;stroke-linecap:butt;stroke-linejoin:round;stroke-miterlimit:4;stroke-opacity:1;stroke-dasharray:none" />
    <path
       id="path5449-3"
       d="m 33.896974,41.395867 c 0.0073,0.628604 -0.181746,1.589436 0.659175,1.679604 l 1.229616,0.228176 c 0.261887,0.04291 0.169404,-0.44626 0.152117,-0.975318"
       style="fill:#fbfbfb;fill-opacity:1;stroke:#000000;stroke-width:0.16124447;stroke-linecap:round;stroke-linejoin:miter;stroke-miterlimit:4;stroke-opacity:1;stroke-dasharray:none" />
    <path
       id="path5453"
       d="m 33.936824,42.70461 c -0.286439,0.08244 -0.4545,0.289934 -0.335926,0.709882 l 0.671852,3.295877 c 0.757878,0.480772 1.264913,0.300888 1.749351,0.01268 l 0.469028,-2.345144 c 0.212975,-0.963378 0.417025,-1.374533 -0.03169,-1.552865"
       style="fill:#fbfbfb;fill-opacity:1;stroke:#323232;stroke-width:0.20282324;stroke-linecap:butt;stroke-linejoin:round;stroke-miterlimit:4;stroke-opacity:1;stroke-dasharray:none" />
    <path
       id="path5451-5"
       d="m 35.912529,43.29097 0.519735,-0.126764 c 0.191234,-0.03919 0.06123,-0.521221 0.06485,-1.055793"
       style="fill:#fbfbfb;fill-opacity:1;stroke:#000000;stroke-width:0.16124447;stroke-linecap:round;stroke-linejoin:miter;stroke-miterlimit:4;stroke-opacity:1;stroke-dasharray:none" />
    <path
       id="path5602"
       d="m 36.133836,43.170155 c -0.457539,0.03528 -0.02031,-0.637762 -0.221649,-0.8391 -0.01424,-0.01424 -3.570993,-1.551547 -3.625551,-1.551547 -0.209281,0 -1.121829,-0.635535 -0.870767,-0.886598 0.128637,-0.128636 1.451702,0.186186 1.50405,0.205817 0.289214,0.108456 0.478596,0.35804 0.74411,0.490796 0.18897,0.09448 0.503286,0.02666 0.728275,0.126657 0.952667,0.423406 1.572619,0.939333 2.058173,1.424888 0.083,0.083 0.08735,0.989234 0.07916,0.997424 -0.05913,0.05913 -0.286137,0.03166 -0.395803,0.03166 z"
       style="fill:#fbfbfb;fill-opacity:1;stroke:none" />
    <path
       id="path5457"
       d="m 31.30872,39.885307 2.164588,-0.120705 3.016996,2.332468"
       style="fill:#fbfbfb;fill-opacity:1;stroke:#323232;stroke-width:0.20282324;stroke-linecap:butt;stroke-linejoin:miter;stroke-miterlimit:4;stroke-opacity:1;stroke-dasharray:none" />
    <path
       id="path5677"
       d="m 35.278901,42.331055 -1.329895,-0.8391 0.05541,-0.110827 1.290315,0.01584 0.585788,0.823268 0,0.237482 z"
       style="fill:#fbfbfb;fill-opacity:1;stroke:none" />
    <path
       id="path5449"
       d="m 33.897292,41.429649 c 0.0073,0.628604 -0.181746,1.557772 0.659175,1.647939 l 1.229616,0.228176 c 0.261888,0.0429 0.169404,-0.44626 0.152118,-0.975318"
       style="fill:#fbfbfb;fill-opacity:1;stroke:#323232;stroke-width:0.20282324;stroke-linecap:round;stroke-linejoin:miter;stroke-miterlimit:4;stroke-opacity:1;stroke-dasharray:none" />
    <path
       id="path5447"
       d="m 31.411555,39.93454 -0.01154,0.519023 4.538169,1.876114"
       style="fill:#fbfbfb;fill-opacity:1;stroke:#323232;stroke-width:0.20282324;stroke-linecap:butt;stroke-linejoin:miter;stroke-miterlimit:4;stroke-opacity:1;stroke-dasharray:none" />
    <path
       id="path5459"
       d="m 31.698605,40.157564 4.309994,2.028233 0.266205,-0.05071"
       style="fill:#fbfbfb;fill-opacity:1;stroke:#1e1e1e;stroke-width:0.10141162;stroke-linecap:round;stroke-linejoin:miter;stroke-miterlimit:4;stroke-opacity:1;stroke-dasharray:none" />
    <path
       id="path5451"
       d="m 35.912848,43.293088 0.519734,-0.126765 c 0.191234,-0.03919 0.06123,-0.521221 0.06486,-1.055792"
       style="fill:#fbfbfb;fill-opacity:1;stroke:#323232;stroke-width:0.20282324;stroke-linecap:round;stroke-linejoin:miter;stroke-miterlimit:4;stroke-opacity:1;stroke-dasharray:none" />
    <path
       id="path6227"
       d="m 12.542772,14.386161 c 0.999114,3.062105 21.169969,3.086908 23.054008,0"
       style="fill:none;stroke:#1e1e1e;stroke-width:0.10141162;stroke-linecap:round;stroke-linejoin:miter;stroke-miterlimit:4;stroke-opacity:1;stroke-dasharray:none" />
    <path
       d="m 31.942014,18.885183 0.244292,-0.03836 c 0.01036,0.05773 0.03336,0.101198 0.069,0.130409 0.03564,0.02921 0.07783,0.04275 0.126565,0.04063 0.05235,-0.0023 0.09562,-0.02263 0.129814,-0.06105 0.03419,-0.03842 0.04992,-0.08889 0.04719,-0.151426 -0.0026,-0.05918 -0.02178,-0.105337 -0.05759,-0.138458 -0.03581,-0.03312 -0.07838,-0.0486 -0.127725,-0.04645 -0.03249,0.0014 -0.07105,0.009 -0.115664,0.02267 l 0.01961,-0.193015 c 0.06867,-0.0013 0.120414,-0.01742 0.155237,-0.04832 0.03482,-0.03089 0.05117,-0.07062 0.04905,-0.1192 -0.0018,-0.04132 -0.01648,-0.07368 -0.04403,-0.09709 -0.02755,-0.02341 -0.06329,-0.03416 -0.10721,-0.03224 -0.04332,0.0019 -0.07972,0.01747 -0.109188,0.04672 -0.02947,0.02926 -0.04634,0.07083 -0.05062,0.124722 l -0.235374,-0.02664 c 0.013,-0.07497 0.03493,-0.135366 0.06579,-0.181187 0.03086,-0.04582 0.07506,-0.08271 0.132621,-0.110681 0.05756,-0.02796 0.122739,-0.04354 0.195547,-0.04672 0.124554,-0.0054 0.226048,0.02705 0.30448,0.09747 0.06461,0.0576 0.09857,0.124363 0.101887,0.200297 0.0047,0.107763 -0.05502,0.196521 -0.179178,0.266274 0.07647,0.01177 0.138569,0.0429 0.186292,0.0934 0.04772,0.0505 0.0732,0.112883 0.07645,0.187144 0.0047,0.107762 -0.03371,0.201464 -0.115232,0.281104 -0.08153,0.07964 -0.18547,0.122219 -0.311829,0.127736 -0.119742,0.0052 -0.22042,-0.0224 -0.302036,-0.08289 -0.08161,-0.06049 -0.130995,-0.142105 -0.148142,-0.244849 z"
       id="path6544"
       style="font-size:13px;font-style:normal;font-weight:bold;line-height:125%;letter-spacing:0px;word-spacing:0px;fill:#1a1a1a;fill-opacity:1;stroke:none;font-family:Sans;-inkscape-font-specification:Sans Bold" />
    <flowRoot
       transform="matrix(0.11826283,-0.00826974,0.00753853,0.10780594,-62.223371,13.458064)"
       style="font-style:normal;font-weight:bold;line-height:0.01%;font-family:sans-serif;-inkscape-font-specification:'Sans Bold';letter-spacing:0px;word-spacing:0px;fill:#1a1a1a;fill-opacity:1;stroke:none"
       id="flowRoot6495-8"
       xml:space="preserve"><flowRegion
         style="font-family:sans-serif"
         id="flowRegion6497-3"><rect
           style="font-weight:bold;font-size:13px;font-family:sans-serif;-inkscape-font-specification:'Sans Bold';fill:#1a1a1a;fill-opacity:1;stroke:none"
           y="266"
           x="777.5"
           height="25.5"
           width="53.5"
           id="rect6499-9" /></flowRegion><flowPara
         style="font-size:13px;line-height:1.25;font-family:sans-serif"
         id="flowPara6501-4">1</flowPara></flowRoot>    <flowRoot
       transform="matrix(0.1077813,-0.01189917,0.01172001,0.10615852,-54.996515,7.9472333)"
       style="font-style:normal;font-weight:bold;line-height:0.01%;font-family:sans-serif;-inkscape-font-specification:'Sans Bold';letter-spacing:0px;word-spacing:0px;fill:#1a1a1a;fill-opacity:1;stroke:none"
       id="flowRoot6495-4"
       xml:space="preserve"><flowRegion
         style="font-family:sans-serif"
         id="flowRegion6497-6"><rect
           style="font-weight:bold;font-size:13px;font-family:sans-serif;-inkscape-font-specification:'Sans Bold';fill:#1a1a1a;fill-opacity:1;stroke:none"
           y="266"
           x="777.5"
           height="25.5"
           width="53.5"
           id="rect6499-98" /></flowRegion><flowPara
         style="font-size:13px;line-height:1.25;font-family:sans-serif"
         id="flowPara6501-5">2</flowPara></flowRoot>    <path
       id="path6552"
       d="m 29.829005,19.324337 0,22.107732"
       style="fill:#1a1a1a;fill-opacity:1;stroke:#1a1a1a;stroke-width:0.16225858;stroke-linecap:butt;stroke-linejoin:miter;stroke-miterlimit:4;stroke-opacity:1;stroke-dasharray:none" />
  </g>
</svg>
